<svg xmlns="http://www.w3.org/2000/svg" width="200" height="200" viewBox="0 0 200 200"><title>Asset 98</title><path d="M123.85692,129.98516H76.26878c-10.59155,0-20.42651-5.75934-28.553-11.44562,2.68433,20.71918,20.52381,45.76312,41.95081,45.76312h20.76807c21.42688,0,39.29077-25.04394,41.97522-45.76312C144.3076,124.20134,134.44835,129.98516,123.85692,129.98516ZM109.80528,136.536a10.7762,10.7762,0,0,1-19.8844.08,1.744,1.744,0,0,1,3.2124-1.35913,7.28786,7.28786,0,0,0,13.44776-.0528,1.74426,1.74426,0,0,1,3.22424,1.33191Z" fill="#5d6061"/><path d="M94.31732,164.30665H89.656c-21.4267,0-39.26635-25.03878-41.95106-45.758a80.94249,80.94249,0,0,0,13.52,7.93138C65.74,142.92851,78.55227,160.06019,94.31732,164.30665Z" fill="#323436"/><rect width="200" height="200" fill="none"/></svg>