<svg xmlns="http://www.w3.org/2000/svg" width="200" height="200" viewBox="0 0 200 200"><title>Asset 187</title><path d="M116.915,128.57708c-.1499,3.48-4.78,5.01-10.51,4.99a20.03531,20.03531,0,0,1-3.43994-.29,3.40924,3.40924,0,0,1-.34-.06c-.07-.02-.15-.03-.22009-.05a5.0509,5.0509,0,0,1-2.3999-1.33,5.05138,5.05138,0,0,1-2.4,1.33c-.07995.02-.16.03-.23.05a3.41516,3.41516,0,0,1-.34.06,19.94978,19.94978,0,0,1-3.44007.29c-5.73.02-10.35-1.51-10.51-4.99a3.2963,3.2963,0,0,1,.64-1.98,6.85515,6.85515,0,0,0,5.1,2.59,4.71827,4.71827,0,0,0,3.6-1.87,5.6067,5.6067,0,0,1,7.58008-.01,5.59367,5.59367,0,0,1,7.56994.01,4.735,4.735,0,0,0,3.6,1.87,6.87761,6.87761,0,0,0,5.11011-2.59A3.3525,3.3525,0,0,1,116.915,128.57708Z" fill="#663412"/><rect width="200" height="200" fill="none"/></svg>