<svg xmlns="http://www.w3.org/2000/svg" width="200" height="200" viewBox="0 0 200 200"><title>Asset 103</title><path d="M123.85155,129.98516H76.26341c-10.59155,0-20.42651-5.75934-28.553-11.44562a42.46078,42.46078,0,0,0,41.95081,36.87482H110.4293a42.4855,42.4855,0,0,0,41.97522-36.87482C144.30223,124.20134,134.443,129.98516,123.85155,129.98516ZM109.79991,136.536a10.7762,10.7762,0,0,1-19.8844.08,1.744,1.744,0,0,1,3.2124-1.35913,7.28786,7.28786,0,0,0,13.44776-.0528,1.74426,1.74426,0,0,1,3.22424,1.33191Z" fill="#5d6061"/><path d="M79.02088,154.02329a2.05338,2.05338,0,0,1-.41483-.09756c-.41483-.122-.82966-.2197-1.24464-.36612-.53682-.1707-1.07379-.34155-1.58618-.5124a40.95426,40.95426,0,0,1-7.88268-3.73392c-.51239-.29284-.97608-.6101-1.46419-.92737s-.9518-.63439-1.41549-.97608c-.46369-.31727-.92737-.659-1.36663-1.02509-.3904-.29283-.75653-.58567-1.1225-.87851-.80538-.68324-1.56191-1.39106-2.294-2.09873-.43926-.41483-.85423-.82981-1.24464-1.26907a11.96317,11.96317,0,0,1-1.04936-1.17136,41.52034,41.52034,0,0,1-6.56475-9.93254c-.17085-.366-.34169-.7321-.51254-1.12265-.3417-.78081-.659-1.56176-.9518-2.36714-.122-.36612-.26841-.7321-.39041-1.09822q-.36619-1.09815-.659-2.19629c-.17085-.63454-.31727-1.24465-.46368-1.87918-.29284-1.26907-.5124-2.538-.68325-3.83148a124.40143,124.40143,0,0,0,13.51822,7.92922C63.05887,138.32923,69.57645,147.361,79.02088,154.02329Z" fill="#323436"/><rect width="200" height="200" fill="none"/></svg>