<svg id="Layer_1" data-name="Layer 1" xmlns="http://www.w3.org/2000/svg" viewBox="0 0 400 86.08"><defs><style>.cls-1{fill:#a8ad00;}.cls-2{fill:#fff;}.cls-3{fill:#54585a;}</style></defs><title>Ocado_ORL_Logo-01</title><path class="cls-1" d="M74.89,2.06H9.13A9.12,9.12,0,0,0,0,11.18V77a9.12,9.12,0,0,0,9.13,9.12H84V11.19a9.11,9.11,0,0,0-9.11-9.13Z"/><path class="cls-2" d="M42.31,72.78a29.09,29.09,0,0,0,29.19-29v0c0-3.83-1.19-8.83-1.2-7.58,0,10.86-10,19.64-20.73,18.14-8.09-1.12-17.1-8.59-15.49-20.21A17.2,17.2,0,0,1,53.16,18.93c11.69,1.61,14.19,10.57,10.7,14.79-3.53,4.83-10.77,2-10.77-3.51a5.58,5.58,0,0,1,2.33-4.74c-6-1.77-12.17,3-13,9.21a11.42,11.42,0,0,0,9.72,12.88C62.51,49,68.48,40.62,68.48,33.27c0-8.76-9.28-18.68-26-18.68a29.1,29.1,0,1,0-.18,58.19Z"/><path class="cls-3" d="M371.44,24.06a28.13,28.13,0,0,0-28.58,28.45,28.57,28.57,0,0,0,57.14,0,28.12,28.12,0,0,0-28.56-28.45m0,9.83a18.64,18.64,0,0,1,0,37.27c-10.18,0-18.26-8.59-18.26-18.63a18.48,18.48,0,0,1,18.26-18.64"/><path class="cls-3" d="M239.22,71.15c-10.17,0-18.25-8.59-18.25-18.63a18.27,18.27,0,1,1,18.25,18.63m18.11-45.5v6.11H257a24.48,24.48,0,0,0-18-7.7,28.13,28.13,0,0,0-28.57,28.45A28.12,28.12,0,0,0,238.94,81a24.82,24.82,0,0,0,18-7.7h.38v6H267.6V25.65Z"/><path class="cls-3" d="M305.33,71.15a18.63,18.63,0,1,1,18.3-18.63,18.58,18.58,0,0,1-18.3,18.63M323.42,0V31.76h-.37a24.48,24.48,0,0,0-18-7.7,28.12,28.12,0,0,0-28.56,28.45A28.11,28.11,0,0,0,305,81a24.82,24.82,0,0,0,18-7.7h.37v6H333.7V0Z"/><path class="cls-3" d="M201.05,65.29a18,18,0,0,1-13.3,5.91,18.64,18.64,0,0,1,0-37.27,17.93,17.93,0,0,1,13.3,5.91l5-9.35a28.62,28.62,0,0,0-18.26-6.39A28.12,28.12,0,0,0,159.2,52.55,28.12,28.12,0,0,0,187.77,81,28.7,28.7,0,0,0,206,74.61Z"/><path class="cls-3" d="M122.73,24.06A28.11,28.11,0,0,0,94.18,52.51a28.57,28.57,0,0,0,57.13,0,28.14,28.14,0,0,0-28.58-28.45m0,9.83a18.64,18.64,0,1,1-18.28,18.64,18.49,18.49,0,0,1,18.28-18.64"/></svg>