<svg xmlns="http://www.w3.org/2000/svg" width="200" height="200" viewBox="0 0 200 200"><title>Asset 144</title><path d="M166.20128,76.012v61.157a13.14419,13.14419,0,0,1-13.12949,13.10522H130.66856a42.53861,42.53861,0,0,0,21.84168-31.9208,1.61259,1.61259,0,0,0,.342.02443,11.73844,11.73844,0,0,0,0-23.47687V80.45355a42.72,42.72,0,0,0-1.36678-10.66464,22.24053,22.24053,0,0,1-16.08261,6.9553H65.68034V70.54543A54.17306,54.17306,0,0,1,66.8517,59.222a50.84241,50.84241,0,0,1,1.586-5.80823c.34169-1.04951.70781-2.07445,1.1225-3.075.21985-.5614.46383-1.12265.70781-1.65948a53.6552,53.6552,0,0,1,4.02676-7.58983,58.25058,58.25058,0,0,1,3.51437-4.832,49.252,49.252,0,0,1,3.83134-4.27074.26471.26471,0,0,1,.12184-.09757,49.33916,49.33916,0,0,1,9.56657-7.95581H114.098c.85439,0,1.684.02443,2.51371.07314.31757,0,.63454.02443.9518.04886.63454.02442,1.24464.07328,1.85475.14642.87852.09756,1.75733.19527,2.61112.34169,1.02509.14642,2.02575.31727,3.02611.53682.58567.12214,1.17165.26856,1.7329.415.244.04871.51269.122.7808.19513.68339.17085,1.36678.36612,2.02575.58583.80523.244,1.61046.53682,2.416.82966.80524.29284,1.586.58567,2.36714.92737a49.32237,49.32237,0,0,1,5.90564,2.953c.63453.366,1.24464.73209,1.83032,1.1225a3.60629,3.60629,0,0,1,.51269.31726c.85409.5614,1.70848,1.14708,2.51371,1.75719.97623.73209,1.92773,1.48862,2.831,2.24515.6834.58567,1.31763,1.17135,1.95217,1.78146a4.76486,4.76486,0,0,1,.36612.34169c.58568.56125,1.17136,1.14708,1.73261,1.75719l.4394.43925c.6831.781,1.36649,1.56176,2.02545,2.36714.58568.70767,1.14693,1.41549,1.65932,2.172a9.04841,9.04841,0,0,1,.83,1.14693c.43911.63453.87852,1.29349,1.29349,1.95246.39026.63438.78081,1.29334,1.17136,1.95231A51.84146,51.84146,0,0,1,166.20128,76.012Z" fill="#3a3430"/><path d="M91.32893,23.93338a49.33916,49.33916,0,0,0-9.56657,7.95581.26471.26471,0,0,0-.12184.09757,49.252,49.252,0,0,0-3.83134,4.27074,58.25058,58.25058,0,0,0-3.51437,4.832,53.6552,53.6552,0,0,0-4.02676,7.58983c-.244.53683-.488,1.09808-.70781,1.65948-.41469,1.0005-.78081,2.02544-1.1225,3.075a50.84241,50.84241,0,0,0-1.586,5.80823,54.17306,54.17306,0,0,0-1.17136,11.32345v6.19878h-.4397a17.63753,17.63753,0,0,1-2.245-.14642c-.36583-.04886-.73225-.07329-1.07365-.14642-.342-.04886-.659-.09772-.97623-.17085-.02442,0-.07328-.02443-.09771-.02443-.56125-.09771-1.09837-.24413-1.63519-.39055-.26811-.07314-.51239-.14642-.7808-.244a11.18479,11.18479,0,0,1-1.17136-.41483,21.412,21.412,0,0,1-2.02545-.90295,12.87453,12.87453,0,0,1-1.26906-.70782,12.79554,12.79554,0,0,1-1.53778-1.00051c-.04856-.02442-.073-.04885-.12184-.07328-.46384-.34155-.903-.68324-1.34206-1.04936-.36642-.31727-.73225-.63454-1.07394-.97608-.1707-.17085-.3417-.31727-.51269-.51255a5.15769,5.15769,0,0,1-.488-.537v.04886a41.66653,41.66653,0,0,0-1.46419,10.95748V94.901a11.73844,11.73844,0,0,0,0,23.47687,1.39014,1.39014,0,0,0,.31726-.02443c.04886.3417.09772.70767.14657,1.04937.02443.07313.02443.14642.04886.2197.073.488.14627.95165.24368,1.41534a41.43273,41.43273,0,0,0,1.36678,5.247c.14657.43926.29284.87852.46354,1.31778.21985.58568.43941,1.19578.70782,1.78161a1.22379,1.22379,0,0,0,.12214.31712c.244.5614.488,1.12265.7811,1.6839.29254.63453.61011,1.24464.92708,1.83032.415.75652.85439,1.48877,1.2935,2.22087.26841.43925.53682.85408.82995,1.26906.24369.366.5124.7321.78081,1.09808.26841.39055.58568.80538.90294,1.19578a1.88345,1.88345,0,0,0,.19513.26856c.31727.41483.659.80523,1.00066,1.19578.488.58568,1.00036,1.14693,1.513,1.70833l.80523.80523c.80553.80539,1.63519,1.58634,2.51371,2.31844.43911.39055.87852.73209,1.34235,1.09822.43911.34169.90265.68339,1.36649,1.02493.87851.63454,1.80618,1.24464,2.75769,1.85475a.18518.18518,0,0,1,.09771.04886q.84188.51254,1.68375.9518H47.15731A13.139,13.139,0,0,1,34.05224,137.169V76.03639q0-1.35443.073-2.70884c.04886-.87851.09772-1.78146.19543-2.6357a50.73248,50.73248,0,0,1,.7811-5.17369c.19513-.87851.39026-1.78146.63454-2.66.21925-.87866.488-1.75718.75637-2.61127,0-.04885.02443-.07328.02443-.122.14627-.48811.31727-.9518.48826-1.41549.02413-.02442.02413-.07328.04856-.09756.14627-.43941.31727-.85424.46384-1.2935q.29268-.73216.58568-1.46419c.17069-.415.36582-.82981.56125-1.24464.07328-.19528.171-.415.244-.58568.26841-.51254.51269-1.04951.7808-1.56191a6.1588,6.1588,0,0,1,.29314-.56125,3.88532,3.88532,0,0,1,.36583-.70782,5.97981,5.97981,0,0,1,.488-.85408c.171-.3417.39085-.6834.586-1.02509.31726-.51239.63423-1.00051.9518-1.513v-.02428c.317-.51254.659-1.00066,1.00036-1.48877.342-.488.68339-.97608,1.02508-1.43977.29284-.36612.58568-.75653.87852-1.12265.24428-.31727.5124-.63453.75668-.9518a.74454.74454,0,0,1,.12214-.17085.33363.33363,0,0,1,.09741-.07313c.12184-.14642.244-.31727.39055-.46369a2.80138,2.80138,0,0,1,.36583-.41483c.14657-.17085.29313-.3417.46383-.51254a.24451.24451,0,0,1,.09742-.122l.12214-.122c.07328-.09771.14657-.17084.21985-.26856l.14627-.14642a2.21126,2.21126,0,0,1,.21956-.244c.171-.19527.36612-.36612.53682-.53682l.07328-.07328.04886-.04886c.24428-.26841.488-.51239.75667-.75653l.04886-.0487c.3414-.3417.68339-.659,1.02479-.97623.12214-.09757.21985-.21971.34169-.31727.43941-.41483.87852-.80538,1.34206-1.17136.83-.70781,1.65962-1.39106,2.5137-2.02559.19543-.14642.415-.29284.61011-.43926a10.876,10.876,0,0,1,.92767-.659c.1707-.122.3414-.21956.5124-.3417.17069-.122.36582-.244.53682-.366a3.74862,3.74862,0,0,1,.39025-.26841c.14657-.09771.31757-.19528.48827-.29284.12184-.07328.21955-.14642.34169-.2197a15.40107,15.40107,0,0,1,1.36678-.80539c.12184-.07313.26811-.14642.39025-.21955a11.9788,11.9788,0,0,1,1.07365-.61011c.21985-.122.43941-.2197.659-.34169.39055-.19528.7811-.41483,1.19578-.61011.02443-.02443.07329-.02443.09772-.04885a1.31613,1.31613,0,0,1,.26871-.122c.65866-.31726,1.342-.6101,2.04957-.90294.26871-.122.53712-.244.80553-.3417a16.15467,16.15467,0,0,1,1.513-.58567h.02443a13.02758,13.02758,0,0,1,1.26907-.43926c.39055-.14642.7808-.26841,1.17136-.3904a.346.346,0,0,1,.14627-.04886c.39055-.122.7811-.24413,1.19578-.3417.29314-.09756.56125-.17084.85439-.244.09771-.02443.1707-.04886.26841-.07328.51239-.14642,1.04951-.26841,1.56191-.366a14.07927,14.07927,0,0,1,1.39091-.293.16144.16144,0,0,1,.14627-.02427c.659-.14642,1.31792-.24414,2.00131-.3417.36613-.07328.75668-.122,1.14693-.17085.48826-.07328.97623-.122,1.46449-.17084.63454-.07314,1.24464-.122,1.87918-.14642.24368-.02443.488-.04886.73195-.04886H83.666c.83-.04871,1.63519-.07314,2.46485-.07314Z" fill="#09090a"/><rect width="200" height="200" fill="none"/><rect width="200" height="200" fill="none"/></svg>