<svg xmlns="http://www.w3.org/2000/svg" width="200" height="200" viewBox="0 0 200 200"><title>Asset 138</title><path d="M166.13121,82.26708a54.71621,54.71621,0,0,1-3.18006,18.39,11.7464,11.7464,0,0,0-5.5299-4.84c-.01.01-.01.01-.01,0-.23-.1-.47009-.19-.71009-.27a5.56432,5.56432,0,0,0-.57983-.18,9.11871,9.11871,0,0,0-.90015-.23c-.26-.05-.51-.1-.77-.13-.23-.03-.45-.06-.66992-.07-.31006-.03-.62-.04-.92993-.04V80.457c0-.43994,0-.87-.02-1.31-.01-.65-.04-1.29-.1001-1.93-.02-.22-.04-.43-.05993-.63995-8.03.66-19.68006-1.73-31.66-7.03a85.2977,85.2977,0,0,1-21.13989-13.01,85.59665,85.59665,0,0,1-21.16016,13.01,86.5989,86.5989,0,0,1-17.6499,5.8c-.02,0-.04.01-.06006.01a54.85184,54.85184,0,0,1-7.86,1.17c.02-.68.06994-1.34.14-2q.26989-2.74494.79-5.42c.18994-.9.38989-1.85.62988-2.78.2201-.9.49-1.83.76-2.73,0-.05.02-.08.02-.12.15-.52.32007-1.01.49-1.49.02-.03.02-.08.05-.1.14-.46.32007-.9.46-1.34.20008-.52.39014-1.03.59009-1.54.16992-.44.36-.88.55994-1.32.06994-.19.17-.41.24011-.61.2699-.54.50989-1.1.77991-1.63q.30011-.66.66-1.32a6.0164,6.0164,0,0,1,.49-.9c.16992-.37.3899-.71.59-1.08.30993-.54.63-1.05.95007-1.57995v-.03c.30994-.54.65991-1.05,1-1.56s.67993-1.03,1.02-1.51a.27684.27684,0,0,0,.06995-.09c.01989-.01.01989-.02.0299-.03l.01-.01a.66287.66287,0,0,0,.06006-.12.04724.04724,0,0,0,.05-.05c.22-.27.43994-.58.65991-.88.25-.31.51-.65.76-1a.76711.76711,0,0,1,.12012-.17.28444.28444,0,0,1,.09985-.07,5.55758,5.55758,0,0,1,.39014-.49c.09985-.14.22-.27.35986-.44q.27009-.33006.57007-.66c.09-.12.22-.26.34-.41l.14-.15a2.75685,2.75685,0,0,1,.22-.24,5.8359,5.8359,0,0,1,.54-.56l.07007-.1.04993-.05a8.09162,8.09162,0,0,1,.76-.78l.04992-.05q.51013-.555,1.02-1.02c.12012-.1.22-.25.34009-.35.35-.31.65991-.63,1-.95a4.10211,4.10211,0,0,1,.35-.27c.82995-.73,1.66-1.46,2.51-2.12.2-.15.42-.32.61-.46a11.1448,11.1448,0,0,1,.92993-.69,10.93623,10.93623,0,0,1,1.05-.73,1.966,1.966,0,0,1,.39-.29c.02-.01.03991-.03.05993-.04.12012-.09.27-.18.43006-.28.12-.07.22009-.14.34-.22.44007-.32.9-.58,1.36011-.85.12988-.08.27-.15.38989-.22a12.222,12.222,0,0,1,1.08008-.64l.65991-.36c.39014-.2.78-.44,1.19007-.64.0299-.02.07995-.02.1-.05.1001-.04.16993-.09.27-.12q.43506-.225.87-.42c.01-.00995.02-.02.02991-.02.38012-.18.76-.35,1.15014-.51.76-.37,1.53992-.66,2.32-.98h.02c.09-.03.18005-.06.2799-.1h-1.3999c-.83008,0-1.64.03-2.47.08h-.01v-5.67a20.6,20.6,0,0,1,8.80994-16.87,20.80325,20.80325,0,0,1,4.9-.59h5.53a20.67337,20.67337,0,0,1,20.61,20.62v3.15c.51989.1,1.0299.2,1.54992.31.59009.12,1.18006.27,1.74.42.24.05.51.12.78.19.68006.17,1.36011.37,2.02.59.81006.24,1.61.53,2.41993.83.8.29,1.59008.58,2.37011.92a49.99485,49.99485,0,0,1,5.8999,2.96c.64014.36,1.25.73,1.83008,1.12a4.53567,4.53567,0,0,1,.52.32c.85.56,1.7,1.14,2.51,1.75.98.74,1.92993,1.49,2.83,2.25.68.59,1.31994,1.17,1.95007,1.78.02991.03.06995.06.09985.09l.07007.07A56.47126,56.47126,0,0,1,166.13121,82.26708Z" fill="#663412"/><path d="M83.58128,23.19707v5.55h.01c.83-.05,1.63989-.08,2.47-.08h1.73c-.10009.04-.22.08-.33008.12-.09985.04-.18994.07-.2799.1h-.02c-.78.31995-1.55994.61-2.32.98-.39014.16-.77.33-1.15014.51-.00989,0-.0199.01-.02991.02q-.43488.195-.87.42c-.10009.03-.16992.08-.27.12-.02.03-.07007.03-.1.05-.41.2-.79993.44-1.19007.64l-.65991.36a12.222,12.222,0,0,0-1.08008.64c-.11987.07-.26.14-.38989.22-.46008.27-.92.53-1.36011.85-.11987.08-.22.15-.34.22-.16.1-.30994.19-.43006.28-.02.01-.03991.03-.05993.04a1.966,1.966,0,0,0-.39.29,10.93623,10.93623,0,0,0-1.05.73,11.1448,11.1448,0,0,0-.92993.69c-.18994.14-.41.31-.61.46-.85.66-1.68006,1.39-2.51,2.12a4.10211,4.10211,0,0,0-.35.27c-.34009.32-.65.64-1,.95-.12012.1-.22.25-.34009.35q-.50994.465-1.02,1.02l-.04992.05a8.09162,8.09162,0,0,0-.76.78l-.04993.05-.07007.1a5.8359,5.8359,0,0,0-.54.56,2.75685,2.75685,0,0,0-.22.24l-.14.15c-.12.15-.25.29-.34.41q-.29993.33-.57007.66c-.13989.17-.26.3-.35986.44a5.55758,5.55758,0,0,0-.39014.49.28444.28444,0,0,0-.09985.07.76711.76711,0,0,0-.12012.17c-.25.35-.51.69-.76,1-.22.3-.43994.61-.65991.88a.04724.04724,0,0,1-.05.05.66287.66287,0,0,1-.06006.12l-.01.01c-.01.01-.01.02-.0299.03a.27684.27684,0,0,1-.06995.09c-.34009.48-.68005,1-1.02,1.51s-.69006,1.02-1,1.56v.03c-.32007.53-.64014,1.04-.95007,1.57995-.20007.37006-.42.71-.59,1.08a6.0164,6.0164,0,0,0-.49.9q-.36.66-.66,1.32c-.27.53-.51,1.09-.77991,1.63-.07007.2-.17017.42-.24011.61-.2.44-.39.88-.55994,1.32-.2.51-.39,1.02-.59009,1.54-.13989.44-.31994.88-.46,1.34-.03.02-.03.06995-.05.1-.16992.48-.34.97-.49,1.49,0,.04-.02.07-.02.12-.27.9-.53991,1.83-.76,2.73-.24.93-.43994,1.87994-.62988,2.78q-.52515,2.67-.79,5.42c-.07007.66-.12,1.32-.14,2-1.20007.1-2.31995.15-3.42.15-.40991,0-.83,0-1.24-.03-.29,0-.58-.01995-.86987-.04-.12012,1.27-.18005,2.55-.18005,3.85v14.45a.96913.96913,0,0,0-.17005-.01,11.7619,11.7619,0,0,0-1.2.06,3.927,3.927,0,0,0-.48.06006c-.20007.03-.4.06-.6001.11a.21992.21992,0,0,0-.08.01c-.24.05-.48.1-.71008.17a6.1864,6.1864,0,0,0-.73.23,11.70531,11.70531,0,0,0-6.29992,5.12,54.71919,54.71919,0,0,1-3.18006-18.38995,56.42733,56.42733,0,0,1,16.11011-39.16.95229.95229,0,0,1,.09986-.1c.17016-.16.34008-.31.51-.47.12012-.1.2201-.22.34009-.32.34-.32.65991-.61,1-.9a2.67352,2.67352,0,0,1,.34-.27c.82995-.71,1.66-1.39,2.51-2.03.20007-.14.42-.29.62-.44.31006-.24005.61011-.46.92005-.66.34-.24.69006-.48,1.04992-.7a3.04781,3.04781,0,0,1,.39014-.27c.1499-.1.31983-.2.49-.3.11987-.06994.22-.13995.33984-.21a12.64135,12.64135,0,0,1,1.37012-.81c.11988-.07.27-.15.38989-.22.36011-.24.71009-.41,1.07007-.61.22-.12.43994-.22.65992-.34.39013-.2.78-.42,1.20007-.61.02-.03.06994-.03.1-.05a1.01054,1.01054,0,0,1,.26-.12c.66-.32,1.3501-.61,2.05-.91.76-.34,1.54-.63,2.32007-.92h.02991a11.93009,11.93009,0,0,1,1.27-.44c.39-.15.7799-.27,1.17-.38995a.26491.26491,0,0,1,.13989-.05c.39014-.12.78-.25,1.20008-.34.28991-.1.55993-.17.85-.25.1-.02.16992-.05.27-.07.51-.15,1.05-.27,1.56006-.37.47-.12.92993-.22,1.38989-.29.05-.02.1001-.05.15-.02a4.93278,4.93278,0,0,1,.53-.1v-3.17a20.7112,20.7112,0,0,1,15.71-20.03A20.6,20.6,0,0,0,83.58128,23.19707Z" fill="#512a14"/><rect width="200" height="200" fill="none"/><rect width="200" height="200" fill="none"/></svg>