<svg xmlns="http://www.w3.org/2000/svg" width="200" height="200" viewBox="0 0 200 200"><title>Asset 117</title><rect width="200" height="200" fill="none"/><path d="M152.715,80.457V94.81707c-4.65992-1.24-8.39-16.56-8.6-28.74a14.48037,14.48037,0,0,1-10.78,4.84H66.38489a14.15485,14.15485,0,0,1-4.38989-.69,14.61482,14.61482,0,0,1-6.39-4.15c-.21008,11.93-3.78,26.87-8.31995,28.65V80.457a42.45033,42.45033,0,0,1,.49-6.42c.15992-1.05.35987-2.09.59986-3.11s.51-2.03.82007-3.02c.21-.66.42993-1.32.67-1.96.24-.65.5-1.3.75989-1.93.28-.63.56006-1.25.8501-1.87006.31-.62994.64-1.25995.98-1.87994.15-.28.31-.56006.46-.84.59008-1.01,1.21-1.98,1.87011-2.93a42.819,42.819,0,0,1,13.79993-12.74c.89-.51,1.79993-.99,2.72009-1.44.61988-.29,1.24-.57,1.86988-.85.63012-.26,1.28-.52,1.93-.76.64-.24,1.29993-.46,1.96-.67.99011-.31,2-.58,3.02-.82s2.05994-.44,3.11-.6a42.4575,42.4575,0,0,1,6.42-.49h20.7699a42.3434,42.3434,0,0,1,34.63012,18.07,38.73792,38.73792,0,0,1,2.34,3.72A41.93392,41.93392,0,0,1,152.715,80.457Z" fill="#663412"/><path d="M104.095,38.12707a43.68907,43.68907,0,0,0-41.97009,32.14c-.03992-.01-.08985-.03-.12988-.04a14.61482,14.61482,0,0,1-6.39-4.15c-.21008,11.8-3.70007,26.54-8.17,28.58v-14.2A42.18967,42.18967,0,0,1,59.865,50.56707a42.9661,42.9661,0,0,1,8.87-6.81c.88-.51,1.79-.99,2.71-1.44.62-.29,1.24-.58,1.88-.85.63-.27,1.27-.52,1.92005-.76.63989-.24,1.3-.46,1.96-.67.99-.31,2-.58,3.02-.82s2.06005-.44,3.11-.6c.70007-.11,1.4-.2,2.11-.27.7-.08,1.42-.14,2.14-.16.27-.02.53992-.03.80994-.04.3601-.00995.72009-.01995,1.08008-.01995Z" fill="#512a14"/></svg>