<svg xmlns="http://www.w3.org/2000/svg" width="200" height="200" viewBox="0 0 200 200"><title>Asset 151</title><path d="M85.42685,155.20376H65.95231a42.02425,42.02425,0,0,0-32.14049,14.88668,12.002,12.002,0,0,1-.5124-19.64553,11.92273,11.92273,0,0,1,0-19.20613,11.94691,11.94691,0,0,1,0-19.23056,11.91639,11.91639,0,0,1-.02443-19.1817c-.02442-.02443-.02442-.02443-.04885-.02443A12.13683,12.13683,0,0,1,28.443,83.18681a12.61135,12.61135,0,0,1,8.83433-11.78714v-.02443H37.2529a11.8303,11.8303,0,0,1-1.36678-5.51538c0-6.93087,5.95479-12.54382,13.32462-12.54382a.831.831,0,0,1,.24428.02443,11.632,11.632,0,0,1-.83-4.3196c0-6.93072,5.97922-12.54367,13.32492-12.54367a13.77539,13.77539,0,0,1,6.5649,1.635,12.22627,12.22627,0,0,0-.31757,2.68441,11.80624,11.80624,0,0,0,.39055,2.953A12.86076,12.86076,0,0,0,56.38574,54.48755v.07313a9.754,9.754,0,0,0-.14627,1.65947,10.91252,10.91252,0,0,0,.1707,2.00117,9.51245,9.51245,0,0,0,.70782,2.46485,12.56029,12.56029,0,0,0,5.34468,6.12549q.32889.183.65867.366a13.811,13.811,0,0,0,6.44275,1.56191h.19543a8.25951,8.25951,0,0,1,1.09807.04886,11.34569,11.34569,0,0,0,.659,1.879,8.56714,8.56714,0,0,0,.46354.95181c.171.31726.3417.6101.53682.90294.19543.29284.415.58568.63454.85424,0,.02443,0,.04871.02442.04871a10.36043,10.36043,0,0,0,1.44007,1.48877c.26811.244.53682.46368.82936.68324-.317.34169-.63423.68339-.97593,1.00066a12.7848,12.7848,0,0,1-1.07364.92737c-.39085.26841-.78111.53682-1.19579.7808a14.06453,14.06453,0,0,1-4.05148,1.61077H68.124a15.32164,15.32164,0,0,1-3.0261.31727,14.71993,14.71993,0,0,1-2.56227-.21971c-.29284-.04871-.56125-.122-.82966-.17085-.36612-.09756-.70782-.19512-1.04952-.31726V79.5019a6.73847,6.73847,0,0,1-.65866-.19528,12.85714,12.85714,0,0,1-4.17333-2.61127,13.204,13.204,0,0,1-2.172.92737,13.49645,13.49645,0,0,1-4.46587.7321,13.12938,13.12938,0,0,1-1.70848-.09756c-.02443.73209-.04885,1.46419-.04885,2.19629V94.901h-.1707a11.73844,11.73844,0,0,0,0,23.47687,3.27152,3.27152,0,0,0,.48826-.02443c.04886.3417.09742.70767.14627,1.04937.02443.07313.02443.14642.04886.2197.073.488.14627.95165.244,1.41534a41.3821,41.3821,0,0,0,1.36678,5.247,10.30273,10.30273,0,0,0,.43911,1.22022q.43926,1.24449.9518,2.416c.21956.48812.43941.97623.68339,1.4642a41.6778,41.6778,0,0,0,3.83134,6.41833c.29314.39055.58568.80538.90324,1.19578a1.85741,1.85741,0,0,0,.19483.26856c.31757.41483.659.80523,1.001,1.19578.488.58568,1.00036,1.14693,1.51275,1.70833q.40306.40262.80553.80523c.80523.80539,1.65932,1.58634,2.51371,2.31844.43911.36612.87822.73209,1.34205,1.09822.43941.34169.90295.68339,1.36649,1.02493a38.12814,38.12814,0,0,0,5.8818,3.56308,34.40986,34.40986,0,0,0,3.90432,1.70832.08975.08975,0,0,1,.07329.02443c.68339.244,1.36678.488,2.0746.70767.68339.21956,1.39091.41483,2.09843.61011a.02393.02393,0,0,1-.02443-.02443A41.86358,41.86358,0,0,0,85.42685,155.20376Z" fill="#09090a"/><path d="M166.96122,112.00822a11.91148,11.91148,0,0,1,0,19.23056,11.88742,11.88742,0,0,1,0,19.20613,11.99241,11.99241,0,0,1-.51239,19.66981,41.91365,41.91365,0,0,0-32.11577-14.911h-19.499a42.54363,42.54363,0,0,0,37.68-36.85035,1.61119,1.61119,0,0,0,.34169.02443,11.73844,11.73844,0,0,0,0-23.47687V80.45355c0-.70767-.02442-1.41534-.04885-2.12316a5.30259,5.30259,0,0,1-.63454.02443,13.70453,13.70453,0,0,1-5.32025-1.04936c0-.02443-2.001-1.02494-2.02515-1.02494a.18518.18518,0,0,1-.09771-.04886,13.60366,13.60366,0,0,1-9.7617,4.00234,11.90953,11.90953,0,0,1-1.31792-.07329A13.38311,13.38311,0,0,1,124.6935,75.646l-.07329-.07329a13.62457,13.62457,0,0,1-8.34636,2.78212c-.36612,0-.75637-.02443-1.12279-.04886h-.02443a13.40112,13.40112,0,0,1-6.93043-2.538c-.02442-.02443-.04885-.02443-.07328-.04886a13.93219,13.93219,0,0,1-8.20009,2.6357c-.36582,0-.73195-.02443-1.09807-.04886h-.02443a13.70329,13.70329,0,0,1-6.95515-2.51356.02392.02392,0,0,1-.02443-.02442c-.02442-.02443-.04885-.02443-.073-.04886a13.69372,13.69372,0,0,1-8.17566,2.6357c-.36583,0-.75668-.02443-1.14693-.04886a6.886,6.886,0,0,1-1.02509-.14641,3.69674,3.69674,0,0,1-.51239-.07314c-.1707-.04886-.3417-.07328-.51269-.122-.317-.07329-.61011-.17085-.90265-.26856a1.81447,1.81447,0,0,1-.39055-.122c-.12214-.04871-.21956-.09757-.3417-.14642l-.02442-.02443h-.02443c-.14657-.07314-.26841-.122-.39026-.17085-.07328-.02428-.12214-.04871-.19542-.07313-.244-.09757-.488-.21971-.73225-.3417a3.13518,3.13518,0,0,1-.488-.26841.39506.39506,0,0,1-.171-.09756c-.12184-.07329-.26811-.17085-.39025-.24413-.29284-.19528-.58568-.39041-.87882-.61011-.29254-.21956-.56125-.43926-.82936-.68324a10.36043,10.36043,0,0,1-1.44007-1.48877c-.02442,0-.02442-.02428-.02442-.04871-.21956-.26856-.43911-.5614-.63454-.85424-.19512-.29284-.36582-.58568-.53682-.90294a8.56714,8.56714,0,0,1-.46354-.95181,11.34569,11.34569,0,0,1-.659-1.879,8.25951,8.25951,0,0,0-1.09807-.04886h-.19543a13.811,13.811,0,0,1-6.44275-1.56191q-.32934-.183-.65867-.366A12.56029,12.56029,0,0,1,57.118,60.68617a9.51245,9.51245,0,0,1-.70782-2.46485,10.91252,10.91252,0,0,1-.1707-2.00117,9.754,9.754,0,0,1,.14627-1.65947v-.07313A12.86076,12.86076,0,0,1,68.58786,43.74962a11.80624,11.80624,0,0,1-.39055-2.953,12.22627,12.22627,0,0,1,.31757-2.68441,13.13647,13.13647,0,0,1,13.00735-9.835,13.60086,13.60086,0,0,1,8.29751,2.80655,13.64431,13.64431,0,0,1,20.64589.02443,13.69809,13.69809,0,0,1,8.37049-2.85526,13.149,13.149,0,0,1,12.98323,9.88369,13.80486,13.80486,0,0,1,6.51574-1.65947c7.3457,0,13.30049,5.61295,13.30049,12.51939a11.98648,11.98648,0,0,1-.90294,4.4903,11.97741,11.97741,0,0,1,1.63489-.17085c7.3457,0,13.32492,5.61295,13.32492,12.54382a11.9561,11.9561,0,0,1-1.68405,5.95464,12.4551,12.4551,0,0,1,7.83367,11.37231,12.1933,12.1933,0,0,1-4.88085,9.61528,11.88742,11.88742,0,0,1,0,19.20613Z" fill="#3a3430"/><rect width="200" height="200" fill="none"/></svg>