<svg xmlns="http://www.w3.org/2000/svg" width="200" height="200" viewBox="0 0 200 200"><title>Asset 164</title><path d="M156.33727,52.31613l-.0006-.025a21.78236,21.78236,0,0,0-1.51335-6.80873,22.36763,22.36763,0,0,0-19.69379-14.00816,14.3169,14.3169,0,0,0-21.47586-6.93072,14.2903,14.2903,0,0,0-27.89418,0,14.34983,14.34983,0,0,0-21.5,6.90644A22.27214,22.27214,0,0,0,43.02763,53.53575v4.71a21.80843,21.80843,0,0,0,4.90528,13.7396A22.33313,22.33313,0,0,0,63.23442,80.234c.68309.0487,1.43977.09756,2.14759.09756h.7531A14.38743,14.38743,0,0,0,85.75264,83.725a14.2964,14.2964,0,0,0,27.90044.00015,14.38734,14.38734,0,0,0,19.61723-3.39357h.73642a22.57932,22.57932,0,0,0,11.19134-2.97218c1.43232,9.14548,4.55047,17.52372,8.17744,17.52372,4.981,0,9.01933-15.79767,9.01933-27.69355C162.39484,57.77521,159.86147,53.63763,156.33727,52.31613Z" fill="#5d6061"/><path d="M63.46708,72.20178c0-.34155.02473-.68325.04945-1.02494a21.61188,21.61188,0,0,1-4.29874-12.93422v-4.71A21.81558,21.81558,0,0,1,64.014,39.86615a13.67291,13.67291,0,0,1-.547-3.80706,12.88423,12.88423,0,0,1,.81983-4.61228,22.25278,22.25278,0,0,0-21.2,21.168c-3.16016,1.59482-5.367,5.78677-5.367,14.57477,0,11.89588,4.03838,27.69355,9.01962,27.69355,3.5808,0,6.66469-8.16747,8.12114-17.17622a22.24133,22.24133,0,0,0,8.358,2.524c.6959.0487,1.44126.09756,2.16159.09756h.77038A13.65271,13.65271,0,0,1,63.46708,72.20178Z" fill="#323436"/><rect width="200" height="200" fill="none"/></svg>