<svg xmlns="http://www.w3.org/2000/svg" width="200" height="200" viewBox="0 0 200 200"><title>Asset 71</title><path d="M42.67734,63.88367c-.08.49-.15991.98-.23,1.47-.13989.86005-.24,1.73-.34,2.61005-.06994.61-.12,1.22-.14,1.86-.03.32-.05.63-.05.95-.04993.83-.08,1.66-.08,2.51v22.95a11.70568,11.70568,0,0,0-6.31994,10.4,11.48751,11.48751,0,0,0,.60986,3.73,20.5916,20.5916,0,0,1-17.33984-20.34v-5.53a20.67326,20.67326,0,0,1,20.61987-20.61Z" fill="#893f0e"/><path d="M181.32736,84.49365v5.53a20.68944,20.68944,0,0,1-17.35,20.35,11.71761,11.71761,0,0,0-1.03-9.71c-.15991-.27-.33-.53-.51-.79-.15991-.23-.34-.46-.52-.69a11.68532,11.68532,0,0,0-1.43994-1.46c-.18994-.17-.4-.32995-.61-.49a.035.035,0,0,0-.02-.01,6.98179,6.98179,0,0,0-.77-.53,6.51278,6.51278,0,0,0-.63-.37c-.06006-.03-.11-.06-.16992-.09v-22.97c0-.83-.03-1.64-.08008-2.47v-.22a6.10149,6.10149,0,0,0-.05-.73c-.02-.62994-.07-1.24-.13989-1.87994-.1001-.88-.2-1.75-.34009-2.61005-.07-.5-.1499-.99-.25-1.47h3.29a19.11791,19.11791,0,0,1,2.28.13,20.59876,20.59876,0,0,1,18.34,20.48Z" fill="#b2570b"/><path d="M166.12729,82.27368a54.71618,54.71618,0,0,1-3.17993,18.39c-.15991-.27-.33-.53-.51-.79-.15991-.23-.34-.46-.52-.69a11.68532,11.68532,0,0,0-1.43994-1.46c-.18994-.17-.4-.32995-.61-.49a.035.035,0,0,0-.02-.01,6.98179,6.98179,0,0,0-.77-.53,6.51278,6.51278,0,0,0-.63-.37c-.06006-.03-.11-.06-.16992-.09a1.52318,1.52318,0,0,0-.22-.11c-.21009-.11-.42017-.21-.64014-.3-.01.01-.01.01-.01,0-.23-.1-.47-.19-.71-.27a5.56905,5.56905,0,0,0-.58-.18,9.11618,9.11618,0,0,0-.9-.23c-.13-.02-.26-.05-.39-.07a2.31579,2.31579,0,0,0-.38-.06c-.23-.03-.45-.06-.66992-.07-.11011-.01-.22-.02-.33008-.02-.2-.02-.3999-.02-.6-.02v-14.44c0-.44,0-.87006-.02-1.31-.01-.65-.03991-1.29-.1-1.93006-.02-.22-.04-.43-.06006-.63995-8.03.66-19.67993-1.73-31.65991-7.03a85.299,85.299,0,0,1-21.14-13.01,85.59294,85.59294,0,0,1-21.16,13.01,86.60149,86.60149,0,0,1-17.6499,5.8c-.02,0-.04.01-.06006.01a54.85347,54.85347,0,0,1-7.86011,1.17c.02-.68.07007-1.34.14014-2q.26989-2.74492.78991-5.42c.19007-.9.39-1.85.63-2.78.22-.9.49-1.83.76-2.73,0-.05.02-.08.02-.12.1499-.52.32007-1.01.49-1.49.02-.03.02-.08.05-.1.13989-.46.31994-.9.46-1.34.2-.52.39-1.03.59-1.54.17005-.44.36-.88.55994-1.32.07007-.19.17017-.41.24011-.61.2699-.54.50989-1.1.77991-1.63q.30011-.66.66016-1.32a6.00469,6.00469,0,0,1,.49-.9c.16992-.37.38989-.71.58984-1.08.31006-.54.63013-1.05.95007-1.58v-.03c.30994-.54.66-1.05,1-1.56s.68006-1.03,1.02-1.51a.21031.21031,0,0,0,.05994-.07995l.01-.01c.02-.01.02-.02.03-.03l.01-.01a.66287.66287,0,0,0,.06006-.12.04713.04713,0,0,0,.04992-.05c.2201-.27.44007-.58.66-.88.25-.31.51-.65.76-1a.76626.76626,0,0,1,.12-.17.28392.28392,0,0,1,.1-.07,5.576,5.576,0,0,1,.39-.49c.1-.14.22-.27.36-.44q.2699-.33.57007-.66c.08984-.12006.22-.26.33984-.41l.14014-.15a2.70647,2.70647,0,0,1,.22-.24,5.80477,5.80477,0,0,1,.54-.56l.06994-.1.04993-.05a8.09162,8.09162,0,0,1,.76-.78l.05-.05q.51014-.555,1.02-1.02c.12-.1.22-.25.34-.35.35-.31.66-.63,1-.95a4.14551,4.14551,0,0,1,.35-.27c.83008-.73,1.66-1.46,2.51-2.12.2-.15.42-.32.61011-.46a11.11772,11.11772,0,0,1,.92993-.69,10.92,10.92,0,0,1,1.05-.73,1.96581,1.96581,0,0,1,.38989-.29c.02-.01.04-.03.06006-.04.12-.09.27-.18.42993-.28.12012-.07.22009-.14.34009-.22.43994-.32.8999-.58,1.36-.85.13-.08.27-.15.39-.22a12.22264,12.22264,0,0,1,1.08-.64q.33015-.18.66-.36c.39-.2.78-.44,1.18994-.64.03-.02.08008-.02.1001-.05.1-.04.16992-.09.27-.12q.43486-.225.86987-.42c.01-.01.02-.02.03-.02.38-.18.76-.35,1.15-.51.76-.37,1.53992-.66,2.31995-.98h.02c.2-.07.42-.14.61011-.22h26.24c.84985,0,1.67993.03,2.51.08.31994,0,.62988.02.94995.05.63989.02,1.25.07,1.86.14.88.1,1.75.2,2.61.34.49.07.98.15,1.47.23.52.1,1.03.2,1.55.31.59.12,1.17993.27,1.74.42.24.05.51.12.78.19.67993.17,1.36.37,2.02.59.80993.24,1.60986.53,2.41992.83.8.29,1.59009.58,2.37012.92a50.01487,50.01487,0,0,1,5.8999,2.96c.64.36,1.25.73,1.83008,1.12a4.547,4.547,0,0,1,.52.32c.84985.56,1.7,1.14,2.50988,1.75.98011.74,1.93006,1.49,2.83,2.25.68.59,1.32007,1.17,1.95007,1.78.02991.03.07.06.1.09l.07007.07a58.3211,58.3211,0,0,1,12.97,20.9A54.4787,54.4787,0,0,1,166.12729,82.27368Z" fill="#b2570b"/><path d="M87.78911,28.67257c-.18994.08-.41.15-.61.22h-.02c-.78.31995-1.55993.61-2.31994.98-.39014.16-.77.33-1.15015.51-.00989,0-.0199.01-.02991.02q-.43486.195-.87.42c-.1001.03-.16992.08-.27.12-.02.03-.07007.03-.1.05-.41.2-.79992.44-1.19006.64l-.65991.36a12.222,12.222,0,0,0-1.08008.64c-.11987.07-.26.14-.38989.22-.46009.27-.92005.53-1.36011.85-.11987.08-.22.15-.34.22-.16.1-.30993.19-.43.28-.02.01-.03992.03-.05994.04a1.966,1.966,0,0,0-.39.29,10.935,10.935,0,0,0-1.05.73,11.14315,11.14315,0,0,0-.92993.69c-.18994.14-.41.31-.61.46-.85.66-1.68,1.39-2.51,2.12a4.10358,4.10358,0,0,0-.35.27c-.34009.32-.65.64-1,.95-.12012.1-.22.25-.34009.35q-.51.465-1.02,1.02l-.04993.05a8.09162,8.09162,0,0,0-.76.78l-.04992.05-.07007.1a5.83469,5.83469,0,0,0-.54.56,2.75527,2.75527,0,0,0-.22.24l-.14.15c-.12.15-.25.29-.34.41q-.29992.33-.57007.66c-.13989.17-.26.3-.35986.44a5.55758,5.55758,0,0,0-.39014.49.28425.28425,0,0,0-.09985.07.76711.76711,0,0,0-.12012.17c-.25.35-.51.69-.76,1-.22.3-.43994.61-.65991.88a.04724.04724,0,0,1-.05.05.66287.66287,0,0,1-.06006.12l-.01.01c-.01.01-.01.02-.02991.03a.27694.27694,0,0,1-.06994.09c-.34009.48-.68006,1-1.02,1.51s-.69007,1.02-1,1.56v.03c-.32007.53-.64014,1.04-.95008,1.57995-.20007.37006-.42.71-.59,1.08a6.0164,6.0164,0,0,0-.49.9q-.36.66-.66,1.32c-.27.53-.51,1.09-.7799,1.63-.07007.19995-.17017.42-.24012.61-.2.44-.39.88-.55993,1.32-.19995.51-.39,1.02-.59009,1.54-.13989.44-.31995.88-.46,1.34-.03.02-.03.06995-.05.1-.16992.48-.34.97-.49,1.49,0,.04-.02.07-.02.12-.27.9-.53992,1.83-.76,2.73-.24.93-.43994,1.87994-.62988,2.78q-.52515,2.67-.79,5.42c-.07007.66-.12,1.32-.14,2-1.20007.1-2.31994.15-3.42.15-.40991,0-.83,0-1.24-.03-.29,0-.58-.02-.86987-.04-.12012,1.27-.18006,2.55-.18006,3.85v14.45a.969.969,0,0,0-.17-.01,11.7619,11.7619,0,0,0-1.19995.06,3.92677,3.92677,0,0,0-.48.06006c-.20008.03-.4.06-.6001.11a.22.22,0,0,0-.08.01c-.24.05-.48.1-.71008.17a6.18624,6.18624,0,0,0-.73.23,11.70537,11.70537,0,0,0-6.29993,5.12,54.71943,54.71943,0,0,1-3.18005-18.38995,56.42733,56.42733,0,0,1,16.11011-39.16.95225.95225,0,0,1,.09985-.1c.17017-.16.34009-.31.51-.47.12012-.1.22009-.22.34009-.32.34-.32.65991-.61,1-.9a2.67345,2.67345,0,0,1,.34-.27c.83-.71,1.66-1.39,2.51-2.03.20008-.14.42005-.29.62-.44.31006-.24005.61011-.46.92-.66.34-.24.69007-.48,1.04993-.7a3.04781,3.04781,0,0,1,.39014-.27c.1499-.1.31982-.2.49-.3.11987-.06994.22-.13995.33984-.21a12.64039,12.64039,0,0,1,1.37012-.81c.11987-.07.27-.15.38989-.22.36011-.24.71008-.41,1.07007-.61.22-.12.43994-.22.65991-.34.39014-.2.78-.42,1.20007-.61.02-.03.06995-.03.1-.05a1.01039,1.01039,0,0,1,.26-.12c.66-.32,1.3501-.61,2.05-.91.76-.34,1.54-.63,2.32007-.92h.0299a11.93164,11.93164,0,0,1,1.27-.44c.39-.15.77991-.27,1.17005-.38995a.26486.26486,0,0,1,.13989-.05c.39014-.12.78-.25,1.20007-.34.28992-.1.55994-.17.85-.25.1-.02.16992-.05.27-.07.51-.15,1.05-.27,1.56006-.37.47-.12.92993-.22,1.38989-.29.05-.02.1001-.05.15-.02a4.9337,4.9337,0,0,1,.53-.1c.48-.1.97-.18,1.47-.25.86-.14,1.73-.24,2.61-.34.64-.07,1.25-.12,1.88-.14a6.113,6.113,0,0,1,.73011-.05h.22c.82995-.05,1.63989-.08,2.47-.08Z" fill="#893f0e"/><rect width="200" height="200" fill="none"/></svg>