<svg xmlns="http://www.w3.org/2000/svg" width="200" height="200" viewBox="0 0 200 200"><title>Asset 131</title><path d="M87.79124,28.67705c-.18994.08-.41.15-.61.22h-.02c-.78.32-1.55994.61-2.32.98-.39014.16-.77.33-1.15014.51-.00989,0-.0199.00995-.02991.02q-.43488.195-.87.42c-.10009.03-.16992.08-.27.12-.02.03-.07007.03-.1.05-.41.2-.79993.44-1.19007.64l-.65991.36a12.22185,12.22185,0,0,0-1.08008.64c-.11987.06995-.26.14-.38989.22-.46008.27-.92.53-1.36011.85-.11987.08-.22.15-.34.22-.16.1-.30994.19-.43006.28-.02.01-.03991.03-.05993.04a1.966,1.966,0,0,0-.39.29,10.93623,10.93623,0,0,0-1.05.73,11.14377,11.14377,0,0,0-.92993.68994c-.18994.14-.41.31006-.61.46-.85.66-1.68006,1.39-2.51,2.12a4.08988,4.08988,0,0,0-.35.27c-.34009.32-.65.64-1,.95-.12012.1-.22.25-.34009.35q-.50994.465-1.02,1.02l-.04992.05a8.09066,8.09066,0,0,0-.76.78l-.04993.05-.07007.1a5.82887,5.82887,0,0,0-.54.56,2.75685,2.75685,0,0,0-.22.24l-.14.15c-.12.15-.25.29-.34.41q-.29993.33-.57007.66c-.13989.17-.26.3-.35986.44a5.55758,5.55758,0,0,0-.39014.49.28444.28444,0,0,0-.09985.07.76711.76711,0,0,0-.12012.17c-.25.35-.51.69-.76,1-.22.3-.43994.61-.65991.88a.04727.04727,0,0,1-.05.05.66489.66489,0,0,1-.06006.12l-.01.01c-.01.01-.01.02-.0299.03l-.01.00995a.21011.21011,0,0,1-.05994.08c-.34009.48-.68005,1-1.02,1.51s-.69006,1.02-1,1.56v.03c-.32007.53-.64014,1.04-.95007,1.57995-.20007.37-.42.71-.59,1.08a6.01384,6.01384,0,0,0-.49.9q-.36.66-.66,1.31995c-.27.53-.51,1.09-.77991,1.63-.07007.2-.17017.42-.24011.61-.2.44-.39.88-.55994,1.32-.2.51-.39,1.02-.59009,1.54-.13989.44-.31994.88-.46,1.34-.03.02-.03.07-.05.1-.16992.48-.34.97-.49,1.49,0,.04-.02.07-.02.12-.27.9-.53991,1.83-.76,2.73-.24.93005-.43994,1.88-.62988,2.78q-.52515,2.66994-.79,5.42c-.07007.66-.12,1.32-.14,2-1.20007.1-2.31995.15-3.42.15-.40991,0-.83,0-1.24-.03-.29,0-.58-.02-.86987-.04-.12012,1.27-.18005,2.55-.18005,3.85v14.45a.96913.96913,0,0,0-.17005-.01,11.7619,11.7619,0,0,0-1.2.06,3.93861,3.93861,0,0,0-.48.06c-.20007.03-.4.06-.6001.11a.221.221,0,0,0-.08.01c-.24.05-.48.1-.71008.17005a6.17523,6.17523,0,0,0-.73.23,11.59368,11.59368,0,0,0-1.61987.69q-.345.18-.69006.39c-.17.11-.35.22-.52.34a3.70972,3.70972,0,0,0-.32.23,5.30125,5.30125,0,0,0-.47.36,7.49479,7.49479,0,0,0-.68005.6,2.49411,2.49411,0,0,0-.23.23,3.71112,3.71112,0,0,0-.4701.5.91761.91761,0,0,0-.12988.16,7.05016,7.05016,0,0,0-.6001.75c-.01.01-.01.02-.02.02a7.67936,7.67936,0,0,0-.5299.82c-.01.01-.01.02-.02.03a11.64808,11.64808,0,0,0-1.64,5.97,11.48419,11.48419,0,0,0,.61,3.73,20.59231,20.59231,0,0,1-17.34-20.34v-5.53a20.68274,20.68274,0,0,1,18.33008-20.48,58.3205,58.3205,0,0,1,12.97-20.9.95229.95229,0,0,1,.09986-.1c.17016-.16.34008-.31006.51-.47.12012-.1.2201-.22.34009-.32.34-.32.65991-.61,1-.9a2.67352,2.67352,0,0,1,.34-.27c.82995-.71,1.66-1.39,2.51-2.03.20007-.14.42-.29.62-.44.31006-.24.61011-.46.92005-.66.34-.24.69006-.48,1.04992-.7a3.04847,3.04847,0,0,1,.39014-.27c.1499-.1.31983-.2.49-.3.11987-.07.22-.13995.33984-.21a12.63331,12.63331,0,0,1,1.37012-.81c.11988-.07.27-.15.38989-.22.36011-.24.71009-.41,1.07007-.61.22-.12.43994-.22.65992-.34.39013-.2.78-.42,1.20007-.61.02-.03.06994-.03.1-.05a1.00853,1.00853,0,0,1,.26-.12c.66-.32,1.3501-.61,2.05-.91.76-.34,1.54-.63,2.32007-.92h.02991a11.93009,11.93009,0,0,1,1.27-.44c.39-.15.7799-.27,1.17-.39a.26532.26532,0,0,1,.13989-.05c.39014-.12.78-.25,1.20008-.34.28991-.1.55993-.17.85-.25.1-.02.16992-.05.27-.07.51-.15,1.05-.27,1.56006-.37.47-.12.92993-.22,1.38989-.29.05-.02.1001-.05.15-.02a4.93519,4.93519,0,0,1,.53-.1c.48-.1.97-.18,1.47-.25.86-.14,1.73-.24,2.61-.34.64-.07,1.25-.12,1.88-.14a6.10052,6.10052,0,0,1,.7301-.05h.22c.83-.05,1.63989-.08,2.47-.08Z" fill="#512a14"/><path d="M181.33128,84.49706v5.53a20.68957,20.68957,0,0,1-17.3501,20.35,11.71625,11.71625,0,0,0-1.03-9.71c-.15991-.27-.32983-.53-.51-.79-.15992-.23005-.33985-.46-.5199-.69a11.69044,11.69044,0,0,0-1.44007-1.46c-.18994-.17-.3999-.33-.60986-.49a.035.035,0,0,0-.02-.01,6.98324,6.98324,0,0,0-.77-.53,6.49922,6.49922,0,0,0-.63013-.37c-.05993-.03-.10986-.06-.16992-.09a1.50846,1.50846,0,0,0-.22-.11c-.21-.11-.42-.21-.64-.3-.01.01-.01.01-.01,0-.23-.1-.47009-.19-.71009-.27a5.56432,5.56432,0,0,0-.57983-.18,9.119,9.119,0,0,0-.90015-.23005c-.12988-.01995-.26-.05-.38989-.06994a2.311,2.311,0,0,0-.38013-.06c-.23-.03-.45-.06006-.66992-.07-.11-.01-.22-.02-.33008-.02-.2-.02-.3999-.02-.59985-.02V80.467c0-.44,0-.87-.02-1.31-.01-.65-.04-1.29-.1001-1.93-.02-.22-.04-.43-.05993-.64-8.03.66-19.68006-1.73-31.66-7.03a85.2977,85.2977,0,0,1-21.13989-13.01,85.59665,85.59665,0,0,1-21.16016,13.01,86.5989,86.5989,0,0,1-17.6499,5.8c-.02,0-.04.01-.06006.01a54.85184,54.85184,0,0,1-7.86,1.17c.02-.68.06994-1.34.14-2q.26989-2.745.79-5.42c.18994-.9.38989-1.85.62988-2.78.2201-.9.49-1.83.76-2.73,0-.05.02-.08.02-.12.15-.52.32007-1.01.49-1.49.02-.03.02-.08.05-.1.14-.46.32007-.9.46-1.34.20008-.52.39014-1.03.59009-1.54.16992-.44.36-.88.55994-1.32.06994-.19.17-.41.24011-.61.2699-.54.50989-1.1.77991-1.63q.30011-.65991.66-1.31995a6.01384,6.01384,0,0,1,.49-.9c.16992-.37.3899-.71.59-1.08.30993-.54.63-1.05.95007-1.57995v-.03c.30994-.54.65991-1.05,1-1.56s.67993-1.03,1.02-1.51a.21011.21011,0,0,0,.05994-.08l.01-.00995c.01989-.01.01989-.02.0299-.03l.01-.01a.66489.66489,0,0,0,.06006-.12.04727.04727,0,0,0,.05-.05c.22-.27.43994-.58.65991-.88.25-.31.51-.65.76-1a.76711.76711,0,0,1,.12012-.17.28444.28444,0,0,1,.09985-.07,5.55758,5.55758,0,0,1,.39014-.49c.09985-.14.22-.27.35986-.44q.27009-.33006.57007-.66c.09-.12.22-.26.34-.41l.14-.15a2.75685,2.75685,0,0,1,.22-.24,5.82887,5.82887,0,0,1,.54-.56l.07007-.1.04993-.05a8.09066,8.09066,0,0,1,.76-.78l.04992-.05q.51013-.555,1.02-1.02c.12012-.1.22-.25.34009-.35.35-.31.65991-.63,1-.95a4.08988,4.08988,0,0,1,.35-.27c.82995-.73,1.66-1.46,2.51-2.12.2-.15.42-.32.61-.46a11.14377,11.14377,0,0,1,.92993-.68994,10.93623,10.93623,0,0,1,1.05-.73,1.966,1.966,0,0,1,.39-.29c.02-.01.03991-.03.05993-.04.12012-.09.27-.18.43006-.28.12-.07.22009-.14.34-.22.44007-.31995.9-.57995,1.36011-.85.12988-.08.27-.15.38989-.22a12.22185,12.22185,0,0,1,1.08008-.64l.65991-.36c.39014-.2.78-.44,1.19007-.64.0299-.02.07995-.02.1-.05.1001-.04.16993-.09.27-.12q.43506-.225.87-.42c.01-.01.02-.02.02991-.02.38012-.18005.76-.35,1.15014-.51.76-.37,1.53992-.66,2.32-.98h.02c.2-.06994.42-.14.61-.22h26.24c.85,0,1.67993.03,2.51.08.32007,0,.63.02.95.05.64.02,1.25.07,1.86011.14.87988.1,1.75.2,2.60986.34.49.07.98.15,1.4701.23.51989.1,1.0299.2,1.54992.31.59009.12,1.18006.27,1.74.42.24.05.51.12.78.19.68006.17,1.36011.37,2.02.59.81006.24005,1.61.53,2.41993.83.8.29,1.59008.58,2.37011.92a50.00133,50.00133,0,0,1,5.8999,2.96c.64014.36,1.25.73,1.83008,1.12a4.52726,4.52726,0,0,1,.52.32c.85.56,1.7,1.14,2.51,1.75.98.74,1.92993,1.49,2.83,2.25.68.59,1.31994,1.17,1.95007,1.78.02991.03.06995.06006.09985.09l.07007.07a58.3205,58.3205,0,0,1,12.97,20.9,20.59942,20.59942,0,0,1,18.34009,20.48Z" fill="#663412"/><path d="M37.73118,99.79705a5.982,5.982,0,0,1,.6001-.75A7.05016,7.05016,0,0,0,37.73118,99.79705Z" fill="#893f0e"/><rect width="200" height="200" fill="none"/></svg>