<svg xmlns="http://www.w3.org/2000/svg" width="200" height="200" viewBox="0 0 200 200"><title>Asset 172</title><path d="M162.5423,64.98639c0,12.84717-4.13,29.90812-9.22454,29.90812s-9.22453-17.06095-9.22453-29.90812,4.13-16.61562,9.22453-16.61562S162.5423,52.13921,162.5423,64.98639Z" fill="#3a3430"/><path d="M162.95693,45.27791a33.89157,33.89157,0,0,1-33.90847,33.90847H65.31417c-.73339,0-1.49125-.04894-2.22464-.1222a22.44847,22.44847,0,0,1-15.6219-8.89888A24.18952,24.18952,0,0,1,42.456,55.32574V50.21617c0-13.12822,10.26792-23.8605,22.85822-23.8605h56.15566c9.779,0,17.94428-4.37617,22.66275-11.46581A33.92334,33.92334,0,0,1,162.95693,45.27791Z" fill="#3a3430"/><path d="M55.607,64.98639c0,12.84717-4.13,29.90812-9.22454,29.90812s-9.22453-17.06095-9.22453-29.90812,4.13-16.61562,9.22453-16.61562S55.607,52.13921,55.607,64.98639Z" fill="#09090a"/><path d="M63.04911,56.12505v6.37806a37.38326,37.38326,0,0,0,3.82162,16.68327H65.31567a20.40288,20.40288,0,0,1-2.2138-.13174,22.43442,22.43442,0,0,1-15.629-8.8819A24.37741,24.37741,0,0,1,42.46522,55.3344v-5.113c0-13.12514,10.27883-23.852,22.85045-23.852H85.05615C72.95892,26.36939,63.04911,39.758,63.04911,56.12505Z" fill="#09090a"/><rect width="200" height="200" fill="none"/></svg>