<svg xmlns="http://www.w3.org/2000/svg" width="200" height="200" viewBox="0 0 200 200"><title>Asset 70</title><path d="M162.5423,64.98639c0,12.84717-4.13,29.90812-9.22454,29.90812s-9.22453-17.06095-9.22453-29.90812,4.13-16.61562,9.22453-16.61562S162.5423,52.13921,162.5423,64.98639Z" fill="#3a3430"/><path d="M55.607,64.98639c0,12.84717-4.13,29.90812-9.22454,29.90812s-9.22453-17.06095-9.22453-29.90812,4.13-16.61562,9.22453-16.61562S55.607,52.13921,55.607,64.98639Z" fill="#09090a"/><rect x="42.45595" y="26.35567" width="113.38632" height="45.27696" rx="21.67187" fill="#3a3430"/><path d="M65.62592,71.63707h-1.5a21.74038,21.74038,0,0,1-21.67016-21.68v-1.93a21.7318,21.7318,0,0,1,21.67016-21.67h1.49a26.72,26.72,0,0,0-3.5,2.96,27.76624,27.76624,0,0,0,3.51,42.32Z" fill="#09090a"/><rect width="200" height="200" fill="none"/></svg>