<svg xmlns="http://www.w3.org/2000/svg" width="200" height="200" viewBox="0 0 200 200"><title>Asset 120</title><path d="M162.5447,64.98705c0,12.85-4.12988,29.91-9.23,29.91-4.56006,0-8.35-13.68-9.08-25.76a21.35543,21.35543,0,0,1-10.05993,2.5h-68.55a27.76645,27.76645,0,0,1-3.51-42.32,26.72723,26.72723,0,0,1,3.5-2.96h68.56006a21.73175,21.73175,0,0,1,21.66992,21.67v.71C159.71474,49.92705,162.5447,54.347,162.5447,64.98705Z" fill="#2296ba"/><path d="M65.62478,71.63707h-1.5a21.46144,21.46144,0,0,1-8.7-1.84c-.83008,11.91-4.56006,25.1-9.04,25.1-5.1001,0-9.23-17.06-9.23-29.91,0-9.31,2.16992-13.85,5.29992-15.65v-1.31a21.73177,21.73177,0,0,1,21.67005-21.67h1.49a26.72723,26.72723,0,0,0-3.5,2.96,27.76645,27.76645,0,0,0,3.51,42.32Z" fill="#1077a0"/><rect width="200" height="200" fill="none"/></svg>