<svg xmlns="http://www.w3.org/2000/svg" width="200" height="200" viewBox="0 0 200 200"><title>Asset 42</title><path d="M166.13178,76.00712v93.90764a41.95517,41.95517,0,0,0-31.89622-14.61812H113.54081a42.5058,42.5058,0,0,0,38.90052-36.94806,1.60773,1.60773,0,0,0,.3414.02442,11.73844,11.73844,0,1,0,0-23.47687V80.44871a42.72035,42.72035,0,0,0-1.36648-10.66464,22.24092,22.24092,0,0,1-16.08232,6.9553H65.61084V70.54059a54.19317,54.19317,0,0,1,1.17135-11.32345,50.90445,50.90445,0,0,1,1.58634-5.80822c.34169-1.04952.70782-2.07446,1.1228-3.075a54.10222,54.10222,0,0,1,4.73428-9.24931,58.17846,58.17846,0,0,1,3.51406-4.832,49.20926,49.20926,0,0,1,3.83164-4.27074.26427.26427,0,0,1,.12214-.09757,49.337,49.337,0,0,1,9.56627-7.9558h22.76935c.85379,0,1.68375.02442,2.51341.07313.31727,0,.63454.02443.95181.04886.63453.02442,1.24464.07328,1.85474.14642.87852.09756,1.757.19527,2.61142.34169,1.02479.14642,2.02545.31727,3.02611.53682.58567.12214,1.17135.26856,1.7326.415.244.04871.5124.122.7811.19513.6831.17085,1.36649.36612,2.02515.58583.80553.244,1.61106.53682,2.416.82966.80553.29284,1.58663.58568,2.36744.92737a49.37047,49.37047,0,0,1,5.90593,2.953c.63453.366,1.24464.7321,1.83032,1.1225a3.63593,3.63593,0,0,1,.51239.31726c.85409.5614,1.70818,1.14708,2.51371,1.75719.97593.7321,1.928,1.48862,2.83068,2.24515.68339.58567,1.31792,1.17135,1.95246,1.78146a4.71007,4.71007,0,0,1,.36612.34169c.58568.56125,1.17136,1.14708,1.73261,1.75719l.4394.43926c.6834.78095,1.36649,1.56175,2.02545,2.36714.58568.70767,1.14723,1.41548,1.65962,2.172a9.10513,9.10513,0,0,1,.82966,1.14693c.43941.63453.87852,1.29349,1.2932,1.95246A51.76058,51.76058,0,0,1,166.13178,76.00712Z" fill="#b2570b"/><path d="M48.8207,69.49123a41.654,41.654,0,0,0-1.46419,10.95748V94.89613a11.73844,11.73844,0,1,0,0,23.47687,1.38953,1.38953,0,0,0,.31727-.02442c.04885.34169.09741.70766.14627,1.04936.02442.07314.02442.14642.04885.2197.07329.488.14657.95166.24428,1.41534a41.33083,41.33083,0,0,0,1.36649,5.247c.14627.43926.29284.87852.46383,1.31778.21956.58568.43911,1.19578.70752,1.78161a1.22415,1.22415,0,0,0,.12214.31712c.244.5614.488,1.12265.78081,1.6839.29313.63453.6101,1.24464.92737,1.83032.415.75652.85409,1.48877,1.2935,2.22087.26841.43926.53682.85409.82966,1.26907.24428.366.51239.73209.7811,1.09807.26841.39055.58568.80538.90265,1.19578a1.86322,1.86322,0,0,0,.19542.26856c.31727.41483.659.80523,1.00066,1.19579.488.58567,1.00066,1.14692,1.513,1.70832l.80523.80524c.80524.80538,1.6352,1.58633,2.51371,2.31843.43941.39055.87852.7321,1.34206,1.09822.43941.34169.90324.68339,1.36678,1.02494.87852.63453,1.80589,1.24464,2.75769,1.85474a.18336.18336,0,0,1,.09741.04886c.97653.58568,2.00132,1.14693,3.0264,1.65947.5124.244,1.02509.48811,1.56191.7321s1.07365.46368,1.61047.68339c.53682.21955,1.07394.41483,1.63519.58567.29284.122.58568.21956.87852.31727.80553.26841,1.61076.5124,2.44042.7321h.02443a42.42137,42.42137,0,0,0,7.5167,1.26907H65.87955A41.9558,41.9558,0,0,0,33.983,169.91476V76.03155q0-1.35442.07328-2.70884c.04886-.87851.09772-1.78146.19513-2.6357a50.81258,50.81258,0,0,1,.78081-5.17368c.19542-.87852.39055-1.78147.63453-2.66.21985-.87867.488-1.75719.75667-2.61128,0-.04885.02443-.07328.02443-.122.14657-.48811.317-.9518.488-1.41549.02443-.02442.02443-.07328.04885-.09756.14657-.43941.31727-.85424.46354-1.2935q.29315-.73216.58568-1.46419c.171-.415.36642-.82981.56125-1.24464.07328-.19528.171-.415.24428-.58568.26841-.51254.5124-1.04951.7811-1.56191.19483-.41483.41469-.85423.65867-1.26906a5.89813,5.89813,0,0,1,.48826-.85409c.1707-.3417.39026-.68339.58568-1.02509.317-.51239.63453-1.00051.9515-1.513v-.02428c.31757-.51254.659-1.00066,1.001-1.48877.3414-.488.68309-.97608,1.02479-1.43977.29284-.36612.58567-.75652.87851-1.12265.244-.31726.5127-.63453.75638-.9518a.74485.74485,0,0,1,.12214-.17085.33994.33994,0,0,1,.09771-.07313c.12214-.14642.244-.31727.39026-.46369a2.79007,2.79007,0,0,1,.36642-.41483c.14627-.17085.29254-.34169.46354-.51254a.2434.2434,0,0,1,.09771-.122l.12184-.122c.07328-.09772.14627-.17085.21955-.26856l.14657-.14642a2.2411,2.2411,0,0,1,.21956-.244c.1707-.19527.36612-.36612.53712-.53682l.073-.07328.04886-.04886c.244-.26841.48826-.51239.75638-.75652l.04885-.04871c.342-.3417.68339-.659,1.02509-.97623.12184-.09756.21955-.21971.34169-.31727.43911-.41483.87852-.80538,1.34236-1.17135.82966-.70782,1.65932-1.39106,2.51371-2.0256.19482-.14642.41468-.29284.6101-.43926a10.86759,10.86759,0,0,1,.92708-.659c.171-.122.34169-.21955.51239-.34169.171-.122.36642-.244.53712-.366a3.69054,3.69054,0,0,1,.39055-.26841c.14627-.09771.317-.19528.488-.29284.12214-.07328.21955-.14642.34169-.2197A15.47871,15.47871,0,0,1,60.071,30.8837c.12214-.07314.2687-.14642.39055-.21956a11.9,11.9,0,0,1,1.07394-.61011c.21955-.122.43911-.2197.659-.34169.39025-.19528.78081-.41483,1.19578-.61011.02443-.02442.073-.02442.09742-.04885a1.3136,1.3136,0,0,1,.26841-.122c.659-.31727,1.34235-.61011,2.05017-.903.26811-.122.53682-.244.80523-.34169a16.21842,16.21842,0,0,1,1.51306-.58568H68.149a13,13,0,0,1,1.26907-.43926c.39026-.14642.78081-.26841,1.17136-.3904a.34714.34714,0,0,1,.14657-.04886c.39025-.122.7808-.24413,1.19578-.34169.29254-.09757.56125-.17085.85379-.244.09771-.02443.171-.04885.26871-.07328.51239-.14642,1.04922-.26841,1.56161-.366a14.119,14.119,0,0,1,1.39121-.293.16189.16189,0,0,1,.14657-.02428c.659-.14642,1.31792-.24414,2.001-.3417.36613-.07328.75638-.122,1.14723-.17085.488-.07328.97593-.122,1.4639-.17084.63453-.07314,1.24464-.122,1.87917-.14642.24428-.02443.488-.04886.73225-.04886h.21955c.82966-.04871,1.63519-.07313,2.46486-.07313h5.19811a49.337,49.337,0,0,0-9.56627,7.9558.26427.26427,0,0,0-.12214.09757,49.20926,49.20926,0,0,0-3.83164,4.27074,58.17846,58.17846,0,0,0-3.51406,4.832A54.10222,54.10222,0,0,0,69.49133,50.334c-.415,1.0005-.78111,2.02544-1.1228,3.075a50.90445,50.90445,0,0,0-1.58634,5.80822,54.19317,54.19317,0,0,0-1.17135,11.32345v6.19878h-.43911a17.63518,17.63518,0,0,1-2.2453-.14642c-.36612-.04886-.732-.07329-1.07394-.14642-.3414-.04886-.659-.09771-.97593-.17085-.02443,0-.07329-.02443-.09772-.02443-.56125-.09771-1.09807-.24413-1.63489-.39055-.26871-.07313-.51269-.14642-.7811-.244a11.15912,11.15912,0,0,1-1.17136-.41483,21.41588,21.41588,0,0,1-2.02574-.903,12.94255,12.94255,0,0,1-1.26907-.70782,12.76549,12.76549,0,0,1-1.53718-1.0005c-.04886-.02443-.07329-.04886-.12214-.07329-.46354-.34154-.903-.68324-1.34235-1.04936-.36583-.31727-.73195-.63454-1.07365-.97608-.171-.17085-.34169-.31727-.51239-.51255a5.0608,5.0608,0,0,1-.48827-.537Z" fill="#893f0e"/><rect width="200" height="200" fill="none"/></svg>