<svg xmlns="http://www.w3.org/2000/svg" width="200" height="200" viewBox="0 0 200 200"><title>Asset 77</title><path d="M166.13178,76.0284V169.936a41.95517,41.95517,0,0,0-31.89622-14.61812H113.54081a42.50579,42.50579,0,0,0,38.90052-36.94806,1.60709,1.60709,0,0,0,.3414.02443,11.73844,11.73844,0,1,0,0-23.47688V80.47a42.72035,42.72035,0,0,0-1.36648-10.66464,22.24092,22.24092,0,0,1-16.08232,6.9553H65.61084V70.56188a54.19326,54.19326,0,0,1,1.17135-11.32346,50.90445,50.90445,0,0,1,1.58634-5.80822c.34169-1.04952.70782-2.07445,1.1228-3.075a54.10258,54.10258,0,0,1,4.73428-9.24931,58.18013,58.18013,0,0,1,3.51406-4.832,49.20926,49.20926,0,0,1,3.83164-4.27074.2642.2642,0,0,1,.12214-.09756,49.33706,49.33706,0,0,1,9.56627-7.95581h22.76935c.85379,0,1.68375.02443,2.51341.07313.31727,0,.63454.02443.95181.04886.63453.02443,1.24464.07328,1.85474.14642.87852.09756,1.757.19527,2.61142.34169,1.02479.14642,2.02545.31727,3.02611.53683.58567.12214,1.17135.26856,1.7326.415.244.0487.5124.122.7811.19512.6831.17085,1.36649.36613,2.02515.58583.80553.244,1.61106.53682,2.416.82966.80553.29284,1.58663.58568,2.36744.92737a49.37047,49.37047,0,0,1,5.90593,2.953c.63453.366,1.24464.7321,1.83032,1.1225a3.636,3.636,0,0,1,.51239.31727c.85409.5614,1.70818,1.14707,2.51371,1.75718.97593.7321,1.928,1.48862,2.83068,2.24515.68339.58568,1.31792,1.17136,1.95246,1.78146a4.71026,4.71026,0,0,1,.36612.3417c.58568.56125,1.17136,1.14707,1.73261,1.75718l.4394.43926c.6834.781,1.36649,1.56176,2.02545,2.36714.58568.70767,1.14723,1.41549,1.65962,2.172a9.10585,9.10585,0,0,1,.82966,1.14693c.43941.63453.87852,1.2935,1.2932,1.95246A51.76058,51.76058,0,0,1,166.13178,76.0284Z" fill="#5d6061"/><path d="M48.8207,69.51251A41.65409,41.65409,0,0,0,47.35651,80.47V94.91741a11.73844,11.73844,0,1,0,0,23.47688,1.389,1.389,0,0,0,.31727-.02443c.04885.34169.09741.70767.14627,1.04936.02442.07314.02442.14642.04885.21971.07329.488.14657.95165.24428,1.41534a41.33127,41.33127,0,0,0,1.36649,5.247c.14627.43926.29284.87851.46383,1.31777.21956.58568.43911,1.19579.70752,1.78161a1.224,1.224,0,0,0,.12214.31712c.244.5614.488,1.12265.78081,1.6839.29313.63454.6101,1.24464.92737,1.83032.415.75653.85409,1.48877,1.2935,2.22087.26841.43926.53682.85409.82966,1.26907.24428.366.51239.7321.7811,1.09807.26841.39055.58568.80538.90265,1.19578a1.86267,1.86267,0,0,0,.19542.26856c.31727.41483.659.80524,1.00066,1.19579.488.58568,1.00066,1.14693,1.513,1.70833l.80523.80523c.80524.80538,1.6352,1.58633,2.51371,2.31843.43941.39055.87852.7321,1.34206,1.09822.43941.3417.90324.68339,1.36678,1.02494.87852.63453,1.80589,1.24464,2.75769,1.85474a.18336.18336,0,0,1,.09741.04886c.97653.58568,2.00132,1.14693,3.0264,1.65947.5124.244,1.02509.48812,1.56191.7321s1.07365.46369,1.61047.68339c.53682.21955,1.07394.41483,1.63519.58568.29284.122.58568.21955.87852.31726.80553.26842,1.61076.5124,2.44042.7321h.02443a42.41955,42.41955,0,0,0,7.5167,1.26907H65.87955A41.9558,41.9558,0,0,0,33.983,169.936V76.05283q0-1.35441.07328-2.70883c.04886-.87852.09772-1.78147.19513-2.6357a50.81278,50.81278,0,0,1,.78081-5.17369c.19542-.87852.39055-1.78146.63453-2.66.21985-.87867.488-1.75718.75667-2.61127,0-.04886.02443-.07329.02443-.122.14657-.48812.317-.95181.488-1.41549.02443-.02443.02443-.07329.04885-.09757.14657-.4394.31727-.85423.46354-1.29349q.29315-.73218.58568-1.4642c.171-.415.36642-.82981.56125-1.24464.07328-.19527.171-.415.24428-.58568.26841-.51254.5124-1.04951.7811-1.5619.19483-.41483.41469-.85424.65867-1.26907a5.89813,5.89813,0,0,1,.48826-.85409c.1707-.3417.39026-.68339.58568-1.02509.317-.51239.63453-1.0005.9515-1.513v-.02428c.31757-.51254.659-1.00065,1.001-1.48877.3414-.488.68309-.97608,1.02479-1.43977.29284-.36612.58567-.75652.87851-1.12264.244-.31727.5127-.63454.75638-.95181a.7448.7448,0,0,1,.12214-.17084.33995.33995,0,0,1,.09771-.07314c.12214-.14642.244-.31727.39026-.46369a2.79007,2.79007,0,0,1,.36642-.41483c.14627-.17084.29254-.34169.46354-.51254a.24344.24344,0,0,1,.09771-.122l.12184-.122c.07328-.09771.14627-.17085.21955-.26856l.14657-.14642a2.241,2.241,0,0,1,.21956-.244c.1707-.19528.36612-.36613.53712-.53683l.073-.07328.04886-.04886c.244-.26841.48826-.51239.75638-.75652l.04885-.04871c.342-.34169.68339-.659,1.02509-.97623.12184-.09756.21955-.2197.34169-.31727.43911-.41483.87852-.80538,1.34236-1.17135.82966-.70782,1.65932-1.39106,2.51371-2.0256.19482-.14642.41468-.29283.6101-.43925a10.86552,10.86552,0,0,1,.92708-.659c.171-.122.34169-.21955.51239-.34169.171-.122.36642-.244.53712-.366a3.69054,3.69054,0,0,1,.39055-.26841c.14627-.09771.317-.19527.488-.29284.12214-.07328.21955-.14642.34169-.2197A15.47871,15.47871,0,0,1,60.071,30.905c.12214-.07314.2687-.14642.39055-.21956a11.89749,11.89749,0,0,1,1.07394-.6101c.21955-.122.43911-.21971.659-.3417.39025-.19527.78081-.41483,1.19578-.6101.02443-.02443.073-.02443.09742-.04886a1.31414,1.31414,0,0,1,.26841-.122c.659-.31727,1.34235-.61011,2.05017-.903.26811-.122.53682-.244.80523-.34169a16.21842,16.21842,0,0,1,1.51306-.58568H68.149a13,13,0,0,1,1.26907-.43926c.39026-.14642.78081-.26841,1.17136-.3904a.34714.34714,0,0,1,.14657-.04886c.39025-.122.7808-.24413,1.19578-.34169.29254-.09757.56125-.17085.85379-.244.09771-.02443.171-.04886.26871-.07329.51239-.14642,1.04922-.26841,1.56161-.366a14.11906,14.11906,0,0,1,1.39121-.293.16189.16189,0,0,1,.14657-.02428c.659-.14642,1.31792-.24413,2.001-.3417.36613-.07328.75638-.122,1.14723-.17084.488-.07329.97593-.122,1.4639-.17085.63453-.07314,1.24464-.122,1.87917-.14642.24428-.02443.488-.04886.73225-.04886h.21955c.82966-.0487,1.63519-.07313,2.46486-.07313h5.19811a49.33706,49.33706,0,0,0-9.56627,7.95581.2642.2642,0,0,0-.12214.09756,49.20926,49.20926,0,0,0-3.83164,4.27074,58.18013,58.18013,0,0,0-3.51406,4.832,54.10258,54.10258,0,0,0-4.73428,9.24931c-.415,1.00051-.78111,2.02544-1.1228,3.075a50.90445,50.90445,0,0,0-1.58634,5.80822,54.19326,54.19326,0,0,0-1.17135,11.32346v6.19877h-.43911a17.63518,17.63518,0,0,1-2.2453-.14642c-.36612-.04886-.732-.07328-1.07394-.14642-.3414-.04886-.659-.09771-.97593-.17085-.02443,0-.07329-.02442-.09772-.02442-.56125-.09772-1.09807-.24414-1.63489-.39056-.26871-.07313-.51269-.14642-.7811-.244a11.15912,11.15912,0,0,1-1.17136-.41483,21.41834,21.41834,0,0,1-2.02574-.90294,12.94462,12.94462,0,0,1-1.26907-.70782A12.76678,12.76678,0,0,1,52.3595,72.6119c-.04886-.02443-.07329-.04886-.12214-.07329-.46354-.34154-.903-.68324-1.34235-1.04936-.36583-.31727-.73195-.63453-1.07365-.97608-.171-.17085-.34169-.31727-.51239-.51254a5.06276,5.06276,0,0,1-.48827-.537Z" fill="#323436"/><rect width="200" height="200" fill="none"/></svg>