<svg xmlns="http://www.w3.org/2000/svg" width="200" height="200" viewBox="0 0 200 200"><title>Asset 159</title><path d="M47.38906,76.60155h.12214c.31757.02443.63453.04886.9518.04886.415.02443.82966.02443,1.24464.02443,1.09837,0,2.22087-.04886,3.41666-.14642.02442-.68339.07328-1.34221.14656-2.00117.1707-1.83032.43911-3.63621.78081-5.41767.19513-.9031.39055-1.85475.63453-2.78212.21956-.903.488-1.83032.75638-2.73326,0-.04886.02443-.07329.02443-.122.14657-.51254.31727-1.00065.488-1.48877.02443-.02443.02443-.07313.04886-.09756.14657-.46369.31757-.90295.46384-1.3422q.29268-.76882.58567-1.53748c.1707-.43926.36613-.87852.56125-1.31793.07329-.19513.1707-.41483.244-.6101.26871-.53683.51239-1.09808.7811-1.635q.29269-.65889.659-1.31777a6.41061,6.41061,0,0,1,.488-.903c.171-.36612.39055-.70782.58568-1.07379.31726-.537.63453-1.04937.9518-1.58634v-.02442c.31726-.53683.659-1.04937,1.00065-1.56176.3414-.51255.68339-1.02509,1.02479-1.5132a.87581.87581,0,0,0,.171-.244.05252.05252,0,0,0,.04885-.04885c.21956-.26841.43911-.58568.659-.87852.24368-.31727.51239-.659.75637-1.00051a.74924.74924,0,0,1,.12185-.17085.33722.33722,0,0,1,.09771-.07328c.12214-.14642.24428-.34155.39055-.488a4.88909,4.88909,0,0,1,.36612-.4394c.171-.21956.36583-.43926.56125-.65882.09772-.122.21986-.26856.3417-.415l.14627-.14642a2.21227,2.21227,0,0,1,.21985-.244,5.91746,5.91746,0,0,1,.53682-.56125l.07329-.09771.04885-.04871a7.69521,7.69521,0,0,1,.75638-.78095l.04886-.04886q.51253-.54918,1.02508-1.02493c.12184-.09772.21956-.24414.3414-.3417.342-.31727.659-.63453,1.00066-.9518A3.26581,3.26581,0,0,1,71.403,38.531c.83-.7321,1.65932-1.4642,2.51371-2.12316.19513-.14642.41468-.31727.61011-.46369a11.28283,11.28283,0,0,1,.92707-.68339,10.13585,10.13585,0,0,1,1.04981-.73209,2.031,2.031,0,0,1,.39026-.29284c.14657-.09757.31726-.19528.488-.31727.12214-.07313.21986-.14642.342-.21955a15.91945,15.91945,0,0,1,1.36648-.85424c.12184-.07314.26841-.14642.39055-.21956a12.28754,12.28754,0,0,1,1.07364-.63453q.32979-.183.659-.36612c.39025-.19513.7811-.43926,1.19578-.63454.02443-.02428.07328-.02428.09771-.04871a1.30354,1.30354,0,0,1,.26812-.122q.98844-.51253,2.05017-.9518c.75667-.36612,1.53748-.659,2.31828-.97623h.02443c.19542-.07313.415-.14642.6101-.21955H86.0456c-.83,0-1.63489.02443-2.46485.07313h-.21956c-.244,0-.48826.02443-.73225.04886-.63423.02443-1.24434.07313-1.87887.14642-.87882.09756-1.75733.19527-2.61142.34169-.68339.09757-1.34236.19513-2.00132.34155a.16137.16137,0,0,0-.14627.02443,14.11994,14.11994,0,0,0-1.39091.29284c-.51269.09771-1.04951.2197-1.5622.36612-.09742.02443-.1707.04886-.26812.07314-.29313.07328-.56125.14656-.85438.24413-.41469.09756-.80524.21955-1.19579.34169a.34692.34692,0,0,0-.14657.04871c-.39025.12214-.7805.24413-1.17135.39055a13.083,13.083,0,0,0-1.26907.43926h-.02413c-.78081.29284-1.56191.58568-2.31858.92737-.70782.29284-1.39091.58568-2.04988.903a1.31335,1.31335,0,0,0-.26841.122c-.02443.02443-.07328.02443-.09771.04886-.41468.19512-.80523.41483-1.19578.6101-.21956.122-.43911.21956-.659.3417a11.93452,11.93452,0,0,0-1.07364.6101c-.12214.07314-.26841.14642-.39055.21956a15.35584,15.35584,0,0,0-1.36648.80538c-.12214.07313-.21986.14642-.3417.21955-.1707.09772-.34169.19528-.48826.29284a3.75123,3.75123,0,0,0-.39026.26856c-.36612.21956-.70782.46369-1.04951.70767a10.836,10.836,0,0,0-.92737.659c-.19513.14642-.41469.29284-.61011.43926-.85409.63454-1.68375,1.31778-2.51371,2.0256a3.25583,3.25583,0,0,0-.3414.26841c-.342.29284-.659.58568-1.00065.90294-.12214.09757-.21956.21956-.3417.31727-.34169.31727-.68339.63453-1.02479.97608l-.04885.04886a7.34934,7.34934,0,0,0-.75668.75652l-.04885.04886-.07329.07313c-.1707.17085-.36582.3417-.53682.537a2.16747,2.16747,0,0,0-.21955.244l-.14627.14642a4.86239,4.86239,0,0,0-.342.39055c-.19512.21955-.39025.41483-.56125.63453a2.76713,2.76713,0,0,0-.36582.41483c-.14657.14642-.26871.31727-.39085.46369a.33942.33942,0,0,0-.09742.07314.74007.74007,0,0,0-.12184.17084c-.24428.31727-.51269.63454-.75667.9518-.29284.36613-.58568.75653-.87852,1.12265-.3417.46369-.68339.95166-1.02509,1.43977-.34139.48811-.68339.97623-1.00036,1.48862V52.539c-.31756.51254-.63453,1.00066-.95209,1.513-.19513.3417-.41469.68339-.58568,1.02509a5.95178,5.95178,0,0,0-.488.85409c-.244.41483-.46354.85409-.659,1.26907-.26841.51239-.51239,1.04936-.78081,1.56175-.07328.17085-.17069.39056-.244.58583-.19542.41483-.39055.82966-.56125,1.24449q-.29313.73218-.58568,1.46435c-.14657.43925-.31756.85409-.46383,1.29334-.02443.02443-.02443.07329-.04886.09772-.1707.46368-.34169.92737-.48826,1.41534,0,.04885-.02443.07328-.02443.12214-.26811.85408-.53682,1.7326-.75638,2.61112-.244.87866-.4394,1.78161-.63423,2.66013a50.72928,50.72928,0,0,0-.78111,5.17369c-.09771.85423-.14656,1.75718-.19542,2.6357q-.07329,1.35441-.07328,2.70883v66.03788a13.21317,13.21317,0,0,0,1.58663,6.27191,9.68816,9.68816,0,0,0,.659,1.07379,5.48425,5.48425,0,0,0,.56125.75653,3.637,3.637,0,0,0,.488.58568,14.96058,14.96058,0,0,0,1.24464,1.24464,3.98065,3.98065,0,0,0,.63453.48811,4.71682,4.71682,0,0,0,.70782.5124,7.93949,7.93949,0,0,0,.97593.58582,11.329,11.329,0,0,0,1.34235.63439,6.87419,6.87419,0,0,0,.75668.26856c.14627.04871.29254.09756.46354.14642a6.55835,6.55835,0,0,0,.659.17085,4.40258,4.40258,0,0,0,.7808.14641.47815.47815,0,0,0,.1707.02428c.39085.07329,1.08825.14642,1.4785.17085a38.28721,38.28721,0,0,1,8.52748-3.27008c.78081-.19528,1.58342-.46288,2.36452-.58487a84.9466,84.9466,0,0,1,8.49525-.75734H81.87257c-1.14693,0,1.79079-.09641,1.79079-.09641l1.56347-.01323a42.69484,42.69484,0,0,1-6.19445-1.13915,29.38655,29.38655,0,0,1-2.94915-.8863c-.73225-.24414-1.49813-.52922-2.206-.82206a13.03275,13.03275,0,0,1-1.21922-.51612c-.171-.07328-.36629-.15734-.51256-.23062a10.14488,10.14488,0,0,1-1.24807-.59652,34.87373,34.87373,0,0,1-4.439-2.55731c-.488-.29284-.96534-.643-1.42918-.98469-.75637-.53682-1.43189-1.05408-2.16414-1.66419-.36582-.29284-.79388-.64839-1.13527-.96566-.3417-.29284-.61824-.55615-.93551-.849-.34169-.31727-.68338-.62461-.97622-.94188-1.02479-1.02509-1.95856-2.04873-2.86121-3.147-.39055-.46369-.75468-.93471-1.1205-1.42282-.41528-.537-.83114-1.14518-1.22169-1.70643-.29284-.415-.54088-.7976-.80929-1.23686-.24428-.3904-.4931-.80058-.73738-1.21541-.19513-.31727-.36979-.657-.56521-.99856-.31727-.58583-.63982-1.19208-.93266-1.80218-.31727-.61011-.58854-1.23827-.857-1.8728s-.55072-1.27039-.77058-1.92935c-.19512-.46369-.34844-.94721-.495-1.4109a41.663,41.663,0,0,1-1.3752-5.11184c-.09741-.43926-.1707-.903-.24368-1.36664-.02443-.122-.02443-.21955-.04886-.34169-.04886-.366-.09771-.7321-.14657-1.1225a1.188,1.188,0,0,1-.29284.02443,11.73845,11.73845,0,0,1-.02443-23.47687v-14.301c0-.78095.02443-1.56175.073-2.31828.02443-.537.07328-1.09822.12214-1.63519a.22021.22021,0,0,1-.12214-.02443" fill="#512a14"/><path d="M166.11607,80.7503v66.06231a13.06449,13.06449,0,0,1-12.76337,13.08064,41.89629,41.89629,0,0,0-19.10872-4.588H116.42876V155.281h-2.904A42.5055,42.5055,0,0,0,152.425,118.3329a1.61259,1.61259,0,0,0,.342.02443,11.73846,11.73846,0,0,0,0-23.47687V80.433a33.68418,33.68418,0,0,0-.19543-3.85577c-8.02909.65882-19.59668-1.73275-31.57895-7.02843A85.39863,85.39863,0,0,1,99.85819,56.54133,85.84383,85.84383,0,0,1,78.6999,69.54884a87.02519,87.02519,0,0,1-17.71751,5.80822,54.76842,54.76842,0,0,1-7.85809,1.17136c.02442-.68339.07328-1.34221.14656-2.00117.1707-1.83032.43911-3.63621.78081-5.41767.19513-.9031.39055-1.85475.63453-2.78212.21956-.903.488-1.83032.75638-2.73326,0-.04886.02443-.07329.02443-.122.14657-.51254.31727-1.00065.488-1.48877.02443-.02443.02443-.07313.04886-.09756.14657-.46369.31757-.90295.46384-1.3422q.29268-.76882.58567-1.53748c.1707-.43926.36613-.87852.56125-1.31793.07329-.19513.1707-.41483.244-.6101.26871-.53683.51239-1.09808.7811-1.635q.29269-.65889.659-1.31777a6.41061,6.41061,0,0,1,.488-.903c.171-.36612.39055-.70782.58568-1.07379.31726-.537.63453-1.04937.9518-1.58634v-.02442c.31726-.53683.659-1.04937,1.00065-1.56176.3414-.51255.68339-1.02509,1.02479-1.5132a.87581.87581,0,0,0,.171-.244.05252.05252,0,0,0,.04885-.04885c.21956-.26841.43911-.58568.659-.87852.24368-.31727.51239-.659.75637-1.00051a.74924.74924,0,0,1,.12185-.17085.33722.33722,0,0,1,.09771-.07328c.12214-.14642.24428-.34155.39055-.488a4.88909,4.88909,0,0,1,.36612-.4394c.171-.21956.36583-.43926.56125-.65882.09772-.122.21986-.26856.3417-.415l.14627-.14642a2.21227,2.21227,0,0,1,.21985-.244,5.91746,5.91746,0,0,1,.53682-.56125l.07329-.09771.04885-.04871a7.69521,7.69521,0,0,1,.75638-.78095l.04886-.04886q.51253-.54918,1.02508-1.02493c.12184-.09772.21956-.24414.3414-.3417.342-.31727.659-.63453,1.00066-.9518A3.26581,3.26581,0,0,1,71.403,38.531c.83-.7321,1.65932-1.4642,2.51371-2.12316.19513-.14642.41468-.31727.61011-.46369a11.28283,11.28283,0,0,1,.92707-.68339,10.13585,10.13585,0,0,1,1.04981-.73209,2.031,2.031,0,0,1,.39026-.29284c.14657-.09757.31726-.19528.488-.31727.12214-.07313.21986-.14642.342-.21955a15.91945,15.91945,0,0,1,1.36648-.85424c.12184-.07314.26841-.14642.39055-.21956a12.28754,12.28754,0,0,1,1.07364-.63453q.32979-.183.659-.36612c.39025-.19513.7811-.43926,1.19578-.63454.02443-.02428.07328-.02428.09771-.04871a1.30354,1.30354,0,0,1,.26812-.122q.98844-.51253,2.05017-.9518c.75667-.36612,1.53748-.659,2.31828-.97623h.02443c.19542-.07313.415-.14642.6101-.21955h26.23457c.85439,0,1.684.02443,2.51371.07313.31726,0,.63453.02443.9518.04886.63453.02443,1.24464.07313,1.85474.14642.87852.09756,1.757.19527,2.61113.34169,1.02508.14642,2.02574.31727,3.0261.53683.58568.122,1.17136.26841,1.73261.41483.24428.04885.51269.12214.7811.19527.68339.17085,1.36678.36612,2.02574.58568.80523.24413,1.61047.537,2.416.82981.80523.29284,1.586.58568,2.36714.92737a49.38878,49.38878,0,0,1,5.90564,2.95282c.63453.36612,1.24464.73225,1.83031,1.12265a3.59233,3.59233,0,0,1,.5127.31727c.85408.56125,1.70817,1.14692,2.51341,1.757.97652.73225,1.928,1.48877,2.83127,2.2453.68309.58568,1.31763,1.17135,1.95216,1.78146a4.73351,4.73351,0,0,1,.36612.3417c.58568.56125,1.17136,1.14692,1.73261,1.757l.43911.43926c.68339.781,1.36678,1.56191,2.02574,2.36729.58568.70767,1.14693,1.41549,1.65932,2.172a9.07863,9.07863,0,0,1,.83,1.14693c.43911.63453.87852,1.2935,1.2935,1.95231A51.76412,51.76412,0,0,1,166.11607,80.7503Z" fill="#663412"/><rect width="200" height="200" fill="none"/></svg>