<svg xmlns="http://www.w3.org/2000/svg" width="200" height="200" viewBox="0 0 200 200"><title>Asset 80</title><path d="M166.20114,76.01249v93.90763A41.95519,41.95519,0,0,0,134.30492,155.302H113.61017a42.50581,42.50581,0,0,0,38.90052-36.94807,1.607,1.607,0,0,0,.34139.02443,11.73844,11.73844,0,1,0,0-23.47687V80.45408a42.71982,42.71982,0,0,0-1.36648-10.66464,22.24087,22.24087,0,0,1-16.08231,6.95529H65.68019V70.546A54.19266,54.19266,0,0,1,66.85155,59.2225a50.90761,50.90761,0,0,1,1.58633-5.80822c.3417-1.04951.70782-2.07445,1.1228-3.075A54.10393,54.10393,0,0,1,74.295,41.09,58.18086,58.18086,0,0,1,77.809,36.258a49.21076,49.21076,0,0,1,3.83163-4.27075.26436.26436,0,0,1,.12215-.09756,49.33742,49.33742,0,0,1,9.56627-7.95581h22.76935c.85379,0,1.68375.02443,2.51341.07314.31727,0,.63453.02443.9518.04885.63454.02443,1.24464.07329,1.85475.14642.87852.09757,1.757.19528,2.61142.3417,1.02479.14642,2.02544.31727,3.0261.53682.58568.12214,1.17136.26856,1.73261.415.244.04871.51239.122.7811.19513.68309.17084,1.36648.36612,2.02515.58582.80553.244,1.61106.53683,2.416.82966.80554.29284,1.58664.58568,2.36744.92738a49.36912,49.36912,0,0,1,5.90594,2.953c.63453.366,1.24464.73209,1.83032,1.1225a3.63707,3.63707,0,0,1,.51239.31726c.85409.5614,1.70818,1.14708,2.51371,1.75719.97593.73209,1.928,1.48862,2.83068,2.24514.68339.58568,1.31792,1.17136,1.95245,1.78147a4.70834,4.70834,0,0,1,.36613.34169c.58568.56125,1.17135,1.14708,1.7326,1.75718l.43941.43926c.68339.781,1.36648,1.56176,2.02545,2.36714.58567.70767,1.14722,1.41549,1.65962,2.172a9.1054,9.1054,0,0,1,.82966,1.14693c.4394.63453.87851,1.29349,1.2932,1.95245A51.76073,51.76073,0,0,1,166.20114,76.01249Z" fill="#663412"/><path d="M48.89006,69.4966a41.654,41.654,0,0,0-1.46419,10.95748V94.9015a11.73844,11.73844,0,1,0,0,23.47687,1.38884,1.38884,0,0,0,.31726-.02443c.04886.3417.09742.70767.14627,1.04937.02443.07313.02443.14642.04886.2197.07328.488.14657.95165.24428,1.41534a41.3308,41.3308,0,0,0,1.36648,5.247c.14627.43926.29284.87852.46384,1.31778.21955.58568.43911,1.19578.70752,1.78161a1.22393,1.22393,0,0,0,.12214.31712c.244.5614.488,1.12265.7808,1.6839.29314.63453.61011,1.24464.92738,1.83031.415.75653.85409,1.48878,1.29349,2.22087.26841.43926.53683.85409.82966,1.26907.24429.366.5124.7321.78111,1.09807.26841.39056.58568.80539.90264,1.19579a1.86408,1.86408,0,0,0,.19543.26856c.31727.41483.659.80523,1.00066,1.19578.488.58568,1.00065,1.14693,1.513,1.70833l.80523.80523c.80523.80538,1.63519,1.58634,2.51371,2.31844.43941.39055.87852.73209,1.34205,1.09822.43941.34169.90325.68339,1.36679,1.02493.87851.63454,1.80589,1.24464,2.75769,1.85475a.1834.1834,0,0,1,.09741.04886c.97653.58567,2.00132,1.14692,3.0264,1.65947.5124.244,1.02509.48811,1.56191.73209.53682.24414,1.07364.46369,1.61046.68339s1.07395.41483,1.6352.58568c.29284.122.58567.21956.87851.31727.80553.26841,1.61077.51239,2.44043.7321H79.127a42.42141,42.42141,0,0,0,7.51669,1.26907H65.9489a41.95579,41.95579,0,0,0-31.89651,14.61811V76.03692q0-1.35442.07328-2.70884c.04886-.87852.09771-1.78146.19513-2.6357a50.816,50.816,0,0,1,.7808-5.17369c.19543-.87851.39055-1.78146.63454-2.66.21985-.87866.488-1.75718.75667-2.61127,0-.04885.02443-.07328.02443-.122.14657-.48811.317-.9518.488-1.41549.02442-.02443.02442-.07328.04885-.09756.14657-.43941.31727-.85424.46354-1.2935q.29313-.73216.58568-1.46419c.171-.415.36642-.82981.56125-1.24464.07328-.19528.171-.415.24428-.58568.26841-.51254.51239-1.04952.7811-1.56191.19483-.41483.41468-.85424.65866-1.26907a5.89819,5.89819,0,0,1,.48827-.85409c.1707-.34169.39025-.68339.58568-1.02508.317-.5124.63453-1.00051.9515-1.513v-.02428c.31757-.51254.659-1.00066,1.001-1.48877.34139-.488.68309-.97608,1.02478-1.43977.29284-.36612.58568-.75653.87852-1.12265.244-.31727.51269-.63453.75638-.9518a.74454.74454,0,0,1,.12214-.17085.33962.33962,0,0,1,.09771-.07313c.12214-.14642.244-.31727.39025-.46369a2.79122,2.79122,0,0,1,.36642-.41483c.14627-.17085.29255-.3417.46354-.51254a.24357.24357,0,0,1,.09771-.122l.12185-.122c.07328-.09771.14627-.17084.21955-.26856l.14657-.14642a2.24091,2.24091,0,0,1,.21955-.244c.1707-.19528.36613-.36612.53712-.53682l.073-.07329.04886-.04885c.244-.26841.48826-.5124.75637-.75653l.04886-.0487c.342-.3417.68339-.659,1.02509-.97623.12184-.09757.21955-.21971.34169-.31727.43911-.41483.87852-.80538,1.34235-1.17136.82966-.70782,1.65932-1.39106,2.51371-2.02559.19483-.14642.41468-.29284.61011-.43926a10.86524,10.86524,0,0,1,.92707-.659c.171-.122.3417-.21956.5124-.3417.171-.122.36642-.244.53712-.366a3.689,3.689,0,0,1,.39055-.26841c.14627-.09771.317-.19528.488-.29284.12214-.07329.21956-.14642.3417-.21971a15.481,15.481,0,0,1,1.36648-.80538c.12214-.07313.26871-.14642.39055-.21955a11.90142,11.90142,0,0,1,1.07394-.61011c.21956-.122.43911-.2197.659-.34169.39025-.19528.7808-.41483,1.19578-.61011.02443-.02443.073-.02443.09742-.04886a1.31444,1.31444,0,0,1,.26841-.122c.659-.31726,1.34235-.6101,2.05017-.90294.26811-.122.53682-.244.80523-.3417a16.221,16.221,0,0,1,1.513-.58568h.02443a13.00258,13.00258,0,0,1,1.26907-.43925c.39025-.14642.7808-.26841,1.17135-.39041a.34735.34735,0,0,1,.14657-.04885c.39026-.122.78081-.24413,1.19579-.3417.29254-.09756.56125-.17085.85379-.244.09771-.02443.171-.04886.26871-.07328.51239-.14642,1.04921-.26842,1.56161-.366a14.12135,14.12135,0,0,1,1.39121-.293.1619.1619,0,0,1,.14656-.02428c.659-.14642,1.31793-.24413,2.001-.34169.36612-.07329.75638-.122,1.14723-.17085.488-.07328.97593-.122,1.46389-.17085.63454-.07313,1.24464-.122,1.87918-.14642.24428-.02442.488-.04885.73225-.04885h.21955c.82966-.04871,1.63519-.07314,2.46485-.07314h5.19812a49.33742,49.33742,0,0,0-9.56627,7.95581.26436.26436,0,0,0-.12215.09756A49.21076,49.21076,0,0,0,77.809,36.258,58.18086,58.18086,0,0,0,74.295,41.09a54.10393,54.10393,0,0,0-4.73428,9.2493c-.415,1.00051-.7811,2.02545-1.1228,3.075a50.90761,50.90761,0,0,0-1.58633,5.80822A54.19266,54.19266,0,0,0,65.68019,70.546v6.19877h-.43911a17.635,17.635,0,0,1-2.24529-.14641c-.36613-.04886-.73195-.07329-1.07395-.14642-.34139-.04886-.659-.09772-.97593-.17085-.02443,0-.07328-.02443-.09771-.02443-.56125-.09771-1.09807-.24413-1.63489-.39055-.26871-.07314-.5127-.14642-.78111-.244a11.16351,11.16351,0,0,1-1.17135-.41483,21.41719,21.41719,0,0,1-2.02575-.903,12.94355,12.94355,0,0,1-1.26906-.70782A12.76478,12.76478,0,0,1,52.42886,72.596c-.04886-.02442-.07329-.04885-.12215-.07328-.46353-.34155-.90294-.68324-1.34235-1.04937-.36582-.31726-.73195-.63453-1.07364-.97608-.171-.17084-.3417-.31726-.5124-.51254a5.06277,5.06277,0,0,1-.48826-.537Z" fill="#512a14"/><rect width="200" height="200" fill="none"/></svg>