<svg xmlns="http://www.w3.org/2000/svg" width="200" height="200" viewBox="0 0 200 200"><title>Asset 33</title><path d="M60.99674,96.79081H92.73546a0,0,0,0,1,0,0v13.54166a6.13887,6.13887,0,0,1-6.13887,6.13887h-19.461a6.13887,6.13887,0,0,1-6.13887-6.13887V96.79081a0,0,0,0,1,0,0Z" fill="none" stroke="#000" stroke-miterlimit="10" stroke-width="2.80649"/><path d="M113.51822,96.79081h19.461a6.13887,6.13887,0,0,1,6.13887,6.13887v13.54166a0,0,0,0,1,0,0H107.37935a0,0,0,0,1,0,0V102.92968a6.13887,6.13887,0,0,1,6.13887-6.13887Z" transform="translate(246.49742 213.26214) rotate(-180)" fill="none" stroke="#000" stroke-miterlimit="10" stroke-width="2.80649"/><line x1="94.02313" y1="106.63107" x2="106.09146" y2="106.63107" fill="none" stroke="#000" stroke-linecap="round" stroke-miterlimit="10" stroke-width="2.80649"/><rect width="200" height="200" fill="none"/></svg>