<svg xmlns="http://www.w3.org/2000/svg" width="200" height="200" viewBox="0 0 200 200"><title>Asset 84</title><path d="M100.45988,32.00876c-34.09281,0-65.52549,29.79763-65.52549,66.55042,0,36.72836,31.43268,74.311,65.52549,74.311,34.11708,0,64.8908-37.5826,64.8908-74.311C165.35068,61.80639,134.577,32.00876,100.45988,32.00876Zm-.19528,123.00211c-19.76738,0-37.82658-30.82723-37.82658-52.7422S78.03237,69.58735,100.2646,69.58735c22.25666,0,37.851,10.76636,37.851,32.68132C138.11561,119.17752,122.35041,155.01087,100.2646,155.01087Z" fill="#2b2828"/><path d="M84.89011,170.30183c-27.50364-9.07845-49.95572-40.70641-49.95572-71.74854,0-29.48036,20.23121-54.49472,45.83124-63.207-18.181,13.25149-31.0177,36.41124-31.0177,62.74337C49.74793,126.34977,64.56148,155.07346,84.89011,170.30183Z" fill="#161515"/><rect width="200" height="200" fill="none"/></svg>