<svg xmlns="http://www.w3.org/2000/svg" width="200" height="200.00665" viewBox="0 0 200 200.00665"><title>Asset 74</title><path d="M64.681,155.19512A16.62243,16.62243,0,0,0,48.06189,171.8144v28.18688H23.82834V171.8144a16.60185,16.60185,0,0,1,16.595-16.61928Z" fill="#09090a"/><path d="M176.45259,171.81978v28.18687H48.06189V171.81978a16.61165,16.61165,0,0,1,14.667-16.49729c.31727-.02443.61011-.04886.92738-.07329a.26889.26889,0,0,1,.19512,0,4.74571,4.74571,0,0,1,.82967-.04871H83.76531a16.37516,16.37516,0,1,0,32.75031,0h43.342A16.61751,16.61751,0,0,1,176.45259,171.81978Z" fill="#323436"/><rect width="200" height="200" fill="none"/></svg>