<svg xmlns="http://www.w3.org/2000/svg" width="200" height="200" viewBox="0 0 200 200"><title>Asset 46</title><path d="M115.154,155.19512a15.1546,15.1546,0,0,1-30.30919,0" fill="#c69e77"/><path d="M100,171.56894a16.39221,16.39221,0,0,1-16.37515-16.37277h2.44042a13.93473,13.93473,0,0,0,27.86946,0h2.44042A16.39221,16.39221,0,0,1,100,171.56894Z" fill="#fff"/><circle cx="47.11749" cy="106.63107" r="11.73657" fill="#c69e77"/><circle cx="152.711" cy="106.63107" r="11.73657" fill="#c69e77"/><rect x="47.28775" y="38.13099" width="105.42325" height="117.28337" rx="42.32614" fill="#e2ba8a"/><path d="M78.99387,154.0438a42.48625,42.48625,0,0,1-31.70612-40.95687V80.45842A42.46214,42.46214,0,0,1,89.61518,38.131h14.33757A43.632,43.632,0,0,0,60.46566,81.61808v36.89814A43.51174,43.51174,0,0,0,78.99387,154.0438Z" fill="#c69e77"/><path d="M99.92079,120.68493a5.13035,5.13035,0,0,1,4.734,3.13813.8318.8318,0,0,1-1.5321.64825,3.476,3.476,0,0,0-6.41395.02519.83191.83191,0,0,1-1.53778-.63526A5.12443,5.12443,0,0,1,99.92079,120.68493Z" fill="#c69e77"/><rect width="200" height="200" fill="none"/><path d="M100.04368,143.19666a10.75658,10.75658,0,0,1-9.92556-6.57957,1.744,1.744,0,1,1,3.21228-1.35917,7.2879,7.2879,0,0,0,13.44784-.0528,1.74424,1.74424,0,0,1,3.22421,1.33192A10.7442,10.7442,0,0,1,100.04368,143.19666Z" fill="#1c1e1f"/><rect width="200" height="200" fill="none"/></svg>